<?xml version="1.0" standalone="no"?>
<!DOCTYPE svg PUBLIC "-//W3C//DTD SVG 20010904//EN"
 "http://www.w3.org/TR/2001/REC-SVG-20010904/DTD/svg10.dtd">
<svg version="1.0" xmlns="http://www.w3.org/2000/svg"
 width="1440.000000pt" height="5554.000000pt" viewBox="0 0 1440.000000 5554.000000"
 preserveAspectRatio="xMidYMid meet">
<metadata>
Created by potrace 1.15, written by Peter Selinger 2001-2017
</metadata>
<g transform="translate(0.000000,5554.000000) scale(0.100000,-0.100000)"
fill="#000000" stroke="none">
<path d="M2334 54701 c-78 -34 -108 -190 -53 -280 21 -35 71 -61 117 -61 37 0
93 37 110 73 36 75 22 194 -29 243 -31 29 -105 42 -145 25z m96 -70 c5 -11 10
-54 10 -96 0 -92 -10 -115 -51 -115 -38 0 -49 27 -49 121 0 86 11 109 50 109
19 0 33 -7 40 -19z"/>
<path d="M2643 54693 c-16 -3 -23 -12 -23 -27 0 -31 6 -35 46 -26 l34 8 0
-114 0 -114 -35 0 c-31 0 -35 -3 -35 -25 l0 -25 115 0 115 0 0 24 c0 21 -5 25
-37 28 l-38 3 -3 138 -3 137 -57 -1 c-31 -1 -67 -4 -79 -6z"/>
<path d="M1370 54415 l0 -35 385 0 385 0 0 35 0 35 -385 0 -385 0 0 -35z"/>
<path d="M9127 53262 c-10 -10 -17 -25 -17 -34 0 -31 -23 -79 -44 -91 -13 -8
-85 -14 -196 -17 l-175 -5 0 -175 0 -175 109 -3 c94 -2 113 0 143 18 42 25 53
25 95 1 49 -29 238 -33 269 -6 13 13 19 28 16 43 -3 15 2 31 14 43 21 21 25
64 9 74 -7 4 -8 11 -2 18 14 17 9 154 -5 168 -7 7 -39 15 -70 17 l-58 4 4 50
c2 36 -1 54 -15 69 -22 24 -56 25 -77 1z m58 -67 c-1 -28 -5 -58 -9 -67 -7
-16 -1 -18 57 -18 36 0 72 -3 81 -6 22 -9 20 -41 -4 -54 -11 -6 -20 -15 -20
-19 0 -5 9 -11 20 -14 12 -3 20 -14 20 -27 0 -13 -8 -24 -20 -27 -26 -7 -26
-29 1 -36 15 -4 20 -12 17 -29 -2 -18 -10 -24 -35 -26 -39 -4 -42 -14 -10 -35
18 -12 20 -18 11 -34 -10 -15 -25 -18 -111 -18 -90 0 -103 2 -136 25 -26 17
-35 30 -30 40 4 8 9 66 11 128 l4 112 33 14 c33 14 65 59 65 91 0 28 21 56 38
53 13 -3 17 -14 17 -53z m-340 -255 l0 -155 -62 -3 -63 -3 0 154 c0 84 3 157
7 161 4 4 32 6 63 4 l55 -3 0 -155z m153 41 c-3 -111 -5 -121 -28 -147 -21
-22 -76 -54 -95 -54 -3 0 -5 72 -5 160 l0 160 66 0 66 0 -4 -119z"/>
<path d="M10915 53175 c-17 -16 -25 -35 -25 -59 0 -30 -6 -38 -51 -66 -43 -28
-53 -31 -75 -21 -49 22 -88 10 -112 -36 -17 -31 -15 -57 8 -86 26 -32 64 -42
100 -23 27 13 32 12 79 -17 46 -29 51 -35 51 -68 0 -62 65 -103 118 -75 34 17
42 34 42 81 0 58 -63 91 -123 64 -21 -9 -31 -6 -74 22 -44 29 -49 36 -49 67 1
31 7 39 53 68 49 32 53 33 81 19 23 -12 36 -13 61 -4 37 13 51 35 51 83 0 68
-86 101 -135 51z"/>
<path d="M1611 53164 c-65 -54 -22 -164 64 -164 51 0 95 44 95 95 0 27 -8 44
-29 66 -39 38 -87 39 -130 3z"/>
<path d="M3439 53161 c-21 -22 -29 -39 -29 -66 0 -51 44 -95 95 -95 51 0 95
44 95 95 0 51 -44 95 -95 95 -27 0 -44 -8 -66 -29z"/>
<path d="M5387 53179 c-32 -19 -50 -75 -37 -115 28 -84 152 -83 180 1 14 42 0
87 -34 110 -24 17 -83 19 -109 4z"/>
<path d="M7127 53179 c-11 -6 -25 -27 -33 -46 -20 -46 -4 -97 36 -118 86 -45
173 31 136 118 -8 20 -23 40 -34 46 -26 14 -81 14 -105 0z"/>
<path d="M12504 53171 c-70 -42 -84 -163 -30 -255 29 -50 101 -115 164 -148
l42 -23 43 23 c113 60 185 153 194 250 14 151 -118 226 -224 129 -13 -11 -23
-15 -23 -9 0 20 -62 52 -100 52 -19 0 -49 -9 -66 -19z m123 -26 c12 -8 27 -31
33 -50 6 -19 15 -35 20 -35 5 0 14 16 20 35 6 19 21 42 33 50 25 17 80 20 108
5 50 -27 64 -132 28 -207 -22 -46 -95 -116 -154 -147 -34 -19 -36 -19 -70 0
-59 31 -132 101 -154 147 -36 74 -22 178 26 206 27 15 86 13 110 -4z"/>
<path d="M1595 52967 c-68 -31 -122 -116 -113 -177 l3 -25 190 0 190 0 3 30
c4 41 -35 112 -81 149 -31 25 -48 31 -100 33 -38 2 -74 -2 -92 -10z m165 -39
c45 -31 69 -66 77 -111 l6 -37 -167 0 -166 0 0 26 c0 40 38 99 79 122 50 30
127 29 171 0z"/>
<path d="M3425 52967 c-68 -31 -122 -116 -113 -177 l3 -25 190 0 190 0 3 30
c4 41 -35 112 -81 149 -31 25 -48 31 -100 33 -38 2 -74 -2 -92 -10z m165 -39
c45 -31 69 -66 77 -111 l6 -37 -167 0 -166 0 0 29 c0 36 36 89 79 118 47 32
125 32 171 1z"/>
<path d="M5360 52964 c-67 -29 -110 -93 -110 -164 l0 -40 189 0 c213 0 210 -1
190 74 -31 117 -157 178 -269 130z m171 -37 c37 -24 85 -108 75 -132 -5 -13
-30 -15 -168 -13 l-163 3 3 29 c5 45 29 83 69 111 51 34 135 35 184 2z"/>
<path d="M7100 52964 c-60 -26 -94 -70 -111 -143 -14 -62 -16 -61 191 -61 150
0 189 3 193 14 12 31 -24 126 -59 157 -56 49 -145 63 -214 33z m177 -43 c41
-30 82 -108 68 -130 -4 -7 -62 -11 -165 -11 -103 0 -161 4 -165 11 -14 22 27
100 68 130 33 24 50 29 97 29 47 0 64 -5 97 -29z"/>
<path d="M7095 51501 c-103 -47 -141 -162 -95 -283 11 -29 20 -54 20 -55 0 -1
-20 -14 -45 -29 l-45 -26 0 -168 c0 -93 4 -171 8 -174 5 -3 41 15 80 39 40 25
77 45 84 45 6 0 44 -20 84 -45 l72 -45 69 42 c112 69 103 49 103 234 0 95 -4
165 -10 169 -5 3 -21 -2 -35 -11 -34 -22 -38 -15 -20 36 30 85 10 185 -46 237
-58 53 -152 67 -224 34z m175 -33 c60 -41 75 -71 75 -151 0 -60 -5 -83 -31
-137 -34 -71 -118 -190 -134 -190 -16 0 -100 119 -134 190 -26 54 -31 77 -31
137 0 57 4 77 21 100 38 51 81 73 144 73 43 0 65 -6 90 -22z m130 -446 l0
-147 -60 -38 c-33 -20 -62 -37 -65 -37 -3 0 -5 56 -5 126 0 117 2 128 25 162
22 33 78 80 98 81 4 1 7 -65 7 -147z m-337 72 c24 -40 27 -55 27 -132 0 -72
-3 -89 -17 -98 -10 -6 -39 -23 -65 -38 l-48 -28 0 150 0 150 33 21 c17 11 34
21 37 21 3 -1 17 -21 33 -46z m183 -292 c-3 -2 -34 13 -68 35 l-63 39 -3 62
c-2 34 0 62 4 62 5 0 21 -12 36 -27 l28 -27 33 32 32 32 3 -101 c1 -56 0 -104
-2 -107z"/>
<path d="M3367 51292 c-75 -75 -137 -143 -137 -150 0 -14 16 -16 25 -2 17 28
24 -2 27 -121 3 -129 3 -131 31 -155 27 -23 33 -24 192 -24 101 0 174 4 189
11 43 20 56 65 56 188 0 101 7 130 25 101 3 -5 10 -10 16 -10 22 0 5 29 -46
80 l-55 54 0 68 0 68 -45 0 c-40 0 -45 -3 -45 -22 0 -20 -3 -19 -38 15 -21 20
-42 37 -48 37 -5 0 -71 -62 -147 -138z m256 -1 l97 -98 0 -135 c0 -122 -2
-138 -21 -162 -16 -20 -29 -26 -60 -26 l-39 0 0 115 c0 110 -1 117 -25 140
-30 31 -83 33 -116 6 -22 -18 -24 -28 -29 -138 l-5 -118 -37 -3 c-27 -2 -43 3
-57 17 -19 19 -21 33 -21 163 l0 143 97 97 c54 54 102 98 108 98 6 0 55 -44
108 -99z m-63 -181 c18 -18 20 -33 20 -130 l0 -111 -66 3 -66 3 0 109 c1 88 4
112 18 127 22 25 69 24 94 -1z"/>
<path d="M5265 51396 c-105 -46 -144 -169 -94 -300 30 -82 151 -256 178 -256
13 0 86 94 132 170 21 36 46 95 56 132 15 58 16 74 5 115 -17 63 -55 111 -106
134 -48 22 -128 24 -171 5z m178 -43 c51 -32 81 -98 75 -163 -3 -26 -19 -78
-37 -116 -31 -66 -118 -193 -133 -194 -11 0 -83 93 -116 152 -17 29 -38 81
-48 115 -25 92 -2 161 69 208 60 39 127 39 190 -2z"/>
<path d="M8920 51340 c0 -29 4 -40 15 -40 12 0 15 -16 15 -81 0 -77 -2 -84
-35 -129 -19 -26 -32 -50 -28 -54 3 -3 30 -6 60 -6 l53 0 0 -91 c0 -68 3 -90
13 -87 8 3 13 33 15 91 l3 87 54 0 c32 0 55 4 55 11 0 5 -16 31 -35 56 -33 43
-35 50 -35 123 0 70 2 78 21 83 16 4 20 12 17 39 l-3 33 -92 3 -93 3 0 -41z"/>
<path d="M10789 51365 c-15 -8 -34 -31 -44 -51 -14 -31 -15 -43 -6 -75 11 -38
52 -79 77 -79 11 0 14 -31 14 -155 0 -131 2 -155 15 -155 13 0 15 23 15 150
l0 149 29 16 c41 20 71 62 71 97 0 88 -94 145 -171 103z m116 -40 c37 -36 34
-86 -7 -120 -38 -32 -81 -29 -115 11 -70 78 48 184 122 109z"/>
<path d="M12790 51376 c0 -3 14 -26 32 -51 27 -38 33 -57 36 -113 3 -56 0 -74
-20 -112 -37 -69 -94 -104 -176 -108 -57 -3 -74 0 -115 22 -56 30 -57 30 -57
12 0 -16 93 -66 122 -66 14 0 18 -8 18 -34 0 -33 -2 -35 -40 -38 -22 -2 -41
-7 -43 -13 -1 -6 39 -11 101 -13 81 -2 103 0 100 10 -3 7 -23 14 -46 16 -40 3
-42 5 -42 36 0 31 3 34 39 40 62 10 131 63 164 126 25 48 28 64 25 121 -3 52
-10 77 -34 115 -16 27 -37 50 -47 52 -9 2 -17 1 -17 -2z"/>
<path d="M12557 51335 c-117 -80 -82 -263 56 -295 69 -15 142 15 177 73 27 44
27 129 -1 173 -47 76 -157 99 -232 49z m169 -21 c45 -30 69 -89 57 -144 -8
-41 -61 -95 -102 -103 -48 -10 -90 3 -126 38 -56 57 -56 134 1 190 18 19 43
36 56 38 34 7 88 -2 114 -19z"/>
<path d="M1637 51323 c-4 -3 -7 -15 -7 -25 0 -20 -12 -23 -39 -8 -24 13 -85
-47 -71 -70 16 -24 11 -38 -12 -42 -19 -2 -24 -10 -26 -46 -3 -37 0 -43 22
-52 28 -10 33 -29 14 -48 -10 -10 -5 -19 20 -45 28 -28 35 -30 52 -19 27 16
29 16 40 -13 8 -22 16 -25 55 -25 38 0 45 3 45 19 0 27 15 34 40 19 17 -11 24
-9 51 18 27 27 30 34 20 53 -14 26 -7 41 20 41 16 0 19 7 19 45 0 39 -3 47
-25 55 -28 11 -31 20 -13 38 9 9 4 20 -22 47 -23 23 -37 32 -44 25 -17 -17
-36 -11 -46 15 -8 21 -16 25 -48 25 -21 0 -42 -3 -45 -7z m68 -41 c7 -24 47
-43 66 -32 18 12 41 -8 34 -30 -8 -25 12 -70 30 -70 23 0 18 -30 -11 -57 -20
-18 -24 -30 -20 -49 8 -32 -11 -59 -30 -43 -17 14 -51 3 -64 -22 -13 -23 -50
-26 -50 -4 0 19 -38 35 -77 32 -25 -2 -28 1 -29 28 -1 55 -4 63 -24 68 -23 6
-28 47 -5 47 20 0 38 37 31 65 -7 28 19 54 36 37 14 -14 68 12 68 33 0 22 38
18 45 -3z"/>
<path d="M7021 49646 c-7 -8 -11 -27 -9 -43 l3 -28 165 0 165 0 3 28 c6 53 -6
57 -168 57 -116 0 -150 -3 -159 -14z"/>
<path d="M5196 49529 l-26 -20 0 -237 c0 -130 4 -243 9 -250 4 -8 19 -12 31
-10 17 2 37 26 74 87 28 46 55 84 60 83 4 0 31 -38 60 -84 55 -89 85 -108 106
-68 7 14 10 95 8 251 -4 287 8 269 -173 269 -109 0 -125 -2 -149 -21z m282
-21 c15 -15 17 -468 3 -468 -5 0 -33 39 -61 86 -29 47 -59 88 -66 91 -21 8
-37 -9 -90 -97 -27 -44 -52 -80 -56 -80 -14 0 -9 455 4 468 8 8 52 12 133 12
81 0 125 -4 133 -12z"/>
<path d="M7030 49530 c-19 -19 -20 -31 -18 -268 l3 -247 26 -3 c23 -3 32 7 80
87 29 50 56 91 59 91 3 0 30 -41 59 -91 48 -80 57 -90 80 -87 l26 3 3 247 c3
310 16 288 -168 288 -117 0 -132 -2 -150 -20z m288 -253 c1 -135 -1 -236 -6
-233 -5 3 -31 41 -58 86 -49 80 -63 94 -87 85 -7 -3 -34 -41 -61 -85 -27 -45
-53 -83 -57 -86 -11 -6 -12 459 -2 470 4 3 66 5 137 4 l131 -3 3 -238z"/>
<path d="M8860 49530 c-19 -19 -20 -31 -18 -268 l3 -247 26 -3 c23 -3 32 7 80
87 30 50 56 91 59 91 3 0 30 -41 60 -90 48 -80 58 -91 80 -88 l25 3 3 250 c3
308 17 285 -169 285 -116 0 -131 -2 -149 -20z m288 -253 c1 -131 -1 -236 -6
-233 -5 3 -31 41 -57 85 -71 117 -80 117 -151 -4 -27 -47 -52 -85 -56 -85 -10
0 -10 464 -1 474 4 3 66 5 137 4 l131 -3 3 -238z"/>
<path d="M8986 49435 c-9 -14 -25 -25 -36 -25 -28 0 -34 -19 -14 -41 12 -13
17 -32 15 -51 -3 -28 -1 -30 21 -23 29 9 47 9 76 0 20 -7 22 -4 22 28 0 19 7
40 15 47 23 19 18 40 -10 40 -15 0 -31 9 -41 25 -9 14 -20 25 -24 25 -4 0 -15
-11 -24 -25z"/>
<path d="M12663 49482 c-6 -4 -22 -31 -37 -59 -21 -42 -32 -53 -50 -53 -47 0
-87 -13 -97 -32 -8 -16 -3 -26 34 -62 l45 -43 -10 -53 c-5 -29 -7 -58 -4 -66
8 -20 39 -17 91 8 l45 22 45 -22 c83 -40 99 -29 83 58 l-9 53 40 41 c42 43 52
73 27 82 -8 3 -36 8 -62 12 -46 7 -51 10 -75 56 -28 52 -48 69 -66 58z m47
-82 c22 -46 26 -50 69 -55 78 -11 78 -12 32 -59 l-42 -43 9 -54 c6 -30 8 -56
6 -58 -2 -3 -25 5 -49 17 -58 28 -67 28 -121 -4 -50 -29 -51 -28 -34 56 8 44
7 46 -31 83 -43 40 -43 57 -1 57 54 0 73 12 98 61 13 27 28 49 32 49 5 0 19
-22 32 -50z"/>
<path d="M3298 49473 c-22 -5 -35 -50 -21 -72 9 -14 40 -16 239 -16 l229 0 10
29 c8 24 6 31 -14 47 -21 17 -41 19 -225 18 -110 -1 -209 -3 -218 -6z m430
-45 c3 -17 -12 -18 -211 -18 -117 0 -217 3 -220 7 -4 3 -2 12 4 20 9 11 54 13
218 11 187 -3 206 -5 209 -20z"/>
<path d="M1512 49458 c-7 -7 -12 -21 -12 -33 0 -43 13 -45 245 -45 232 0 245
2 245 45 0 43 -13 45 -245 45 -159 0 -224 -3 -233 -12z m445 -24 c3 -9 0 -20
-8 -25 -8 -5 -99 -9 -204 -9 -104 0 -196 4 -204 9 -8 5 -11 16 -8 25 6 14 33
16 212 16 179 0 206 -2 212 -16z"/>
<path d="M10798 49418 c-14 -41 -17 -43 -62 -48 -59 -6 -65 -24 -8 -28 23 -2
42 -4 42 -5 0 -1 -6 -22 -14 -47 -13 -44 -14 -45 -60 -48 -57 -4 -61 -22 -5
-22 38 0 41 -2 35 -22 -4 -13 -9 -36 -13 -52 -10 -46 17 -28 36 24 l17 45 54
0 c59 0 59 1 44 -64 -11 -50 15 -36 35 19 16 44 18 45 64 48 56 4 64 22 9 22
-21 0 -41 3 -44 6 -4 3 1 25 9 50 15 43 16 44 59 44 32 0 44 4 44 15 0 11 -11
15 -40 15 l-39 0 14 41 c18 51 18 49 1 49 -8 0 -21 -19 -28 -42 l-15 -43 -61
-3 -61 -3 14 42 c18 51 18 49 1 49 -8 0 -21 -19 -28 -42z"/>
<path d="M1516 49324 c-19 -18 -21 -55 -4 -72 15 -15 430 -17 459 -2 23 13 25
53 3 74 -13 14 -48 16 -229 16 -181 0 -216 -2 -229 -16z m442 -36 c3 -17 -12
-18 -212 -18 -210 0 -216 1 -216 20 0 20 5 20 212 18 193 -3 213 -5 216 -20z"/>
<path d="M3288 49329 c-25 -14 -24 -65 1 -79 12 -6 104 -10 230 -10 223 0 241
4 241 50 0 46 -18 50 -243 50 -125 0 -219 -5 -229 -11z m440 -36 c-3 -16 -23
-18 -216 -21 -207 -2 -212 -2 -212 18 0 19 6 20 216 20 200 0 215 -1 212 -17z"/>
<path d="M1512 49188 c-17 -17 -15 -54 4 -72 13 -14 48 -16 229 -16 181 0 216
2 229 16 22 21 20 61 -3 74 -29 15 -444 13 -459 -2z m446 -35 c-3 -17 -21 -18
-213 -18 -192 0 -210 1 -213 18 -3 16 12 17 213 17 201 0 216 -1 213 -17z"/>
<path d="M3282 49188 c-14 -14 -15 -47 -2 -68 14 -23 421 -28 456 -5 26 17 32
53 12 73 -17 17 -449 17 -466 0z m446 -35 c-3 -16 -22 -18 -207 -21 -198 -2
-241 3 -225 29 3 5 102 9 220 9 200 0 215 -1 212 -17z"/>
<path d="M1364 47776 c-24 -20 -28 -33 -32 -87 -5 -80 9 -133 49 -188 28 -39
44 -49 134 -87 18 -7 17 -8 -8 -12 -16 -2 -27 -9 -24 -15 5 -16 46 -22 59 -9
12 12 74 -22 88 -48 27 -50 -2 -107 -59 -119 -42 -8 -61 -33 -45 -58 10 -16
29 -18 154 -18 125 0 144 2 154 18 16 25 -3 50 -45 58 -57 12 -86 69 -59 119
14 26 76 60 88 48 13 -13 54 -7 59 9 3 6 -8 13 -24 15 -30 5 -32 3 41 31 83
31 127 105 134 224 4 81 4 83 -26 113 -22 22 -40 30 -65 30 -37 0 -87 -32 -87
-56 0 -12 -29 -14 -170 -14 -141 0 -170 2 -170 14 0 23 -50 56 -86 56 -20 0
-43 -9 -60 -24z m110 -28 c10 -16 15 -64 18 -159 3 -130 3 -136 -16 -131 -32
9 -91 75 -104 118 -17 58 -15 145 4 172 21 31 78 31 98 0z m513 -4 c24 -38 20
-132 -8 -191 -18 -38 -87 -103 -108 -103 -3 0 -5 62 -3 137 4 160 12 183 67
183 26 0 39 -6 52 -26z m-147 -153 c0 -118 -12 -149 -73 -195 -45 -33 -132
-29 -180 7 -57 44 -67 71 -67 192 l0 105 160 0 160 0 0 -109z"/>
<path d="M1658 47615 c-7 -16 -19 -25 -34 -25 -31 0 -40 -17 -20 -39 9 -10 16
-32 16 -50 0 -30 2 -33 23 -26 12 4 29 7 37 7 8 0 25 -3 38 -7 20 -7 22 -4 22
26 0 18 7 40 16 50 20 22 11 39 -20 39 -15 0 -27 9 -34 25 -6 14 -16 25 -22
25 -6 0 -16 -11 -22 -25z"/>
<path d="M7103 47780 c-61 -36 -63 -50 -63 -349 0 -269 0 -270 23 -297 20 -23
34 -28 85 -32 60 -4 63 -3 97 31 l36 36 -3 216 -3 217 -28 24 c-38 33 -96 33
-134 0 l-28 -24 0 -174 c0 -231 18 -238 25 -8 4 142 8 172 22 186 25 25 77 22
100 -5 16 -21 18 -44 18 -225 0 -199 0 -203 -23 -224 -31 -29 -105 -30 -138
-3 -24 19 -24 21 -27 248 -4 275 -1 303 39 343 26 25 38 30 79 30 40 0 53 -5
78 -29 16 -17 32 -44 36 -62 3 -17 6 -123 6 -235 0 -129 4 -204 10 -204 6 0
10 83 10 230 0 256 -4 274 -63 310 -19 12 -50 20 -77 20 -27 0 -58 -8 -77 -20z"/>
<path d="M5253 47775 c-44 -19 -56 -47 -51 -120 6 -73 27 -118 68 -142 51 -30
50 -58 -3 -106 -49 -46 -67 -90 -67 -167 0 -57 20 -86 68 -100 77 -21 191 -4
214 33 11 18 10 131 -2 164 -6 15 -31 47 -55 69 -25 23 -45 47 -45 54 0 7 20
31 45 54 24 22 49 54 55 69 12 33 13 146 2 164 -25 39 -165 56 -229 28z m186
-449 c46 -42 10 -70 -90 -70 -46 0 -74 5 -93 17 -34 23 -33 33 7 58 42 26 145
23 176 -5z m21 -118 c0 -33 -38 -48 -119 -48 -69 0 -105 17 -109 50 l-3 25
116 0 115 0 0 -27z"/>
<path d="M12744 47766 c-11 -9 -29 -12 -43 -9 -20 5 -45 -16 -167 -138 -125
-125 -144 -147 -139 -169 5 -21 -4 -34 -45 -75 -27 -27 -50 -56 -50 -65 0 -17
112 -131 147 -149 47 -24 116 -7 157 38 15 16 22 18 33 9 12 -9 42 16 164 138
122 122 149 153 144 171 -3 12 -1 25 5 28 28 17 7 55 -84 143 -51 51 -95 92
-98 92 -2 0 -13 -6 -24 -14z m41 -396 l-135 -135 -110 110 c-60 60 -110 113
-110 117 0 3 60 65 133 137 l132 130 113 -112 112 -112 -135 -135z m-265 -46
l85 -85 -33 -30 c-25 -22 -42 -29 -73 -29 -37 0 -48 6 -108 65 l-66 64 50 51
c27 27 52 50 55 50 3 0 44 -38 90 -86z"/>
<path d="M3350 47615 l0 -135 41 -20 40 -21 -24 -19 c-32 -26 -57 -79 -57
-124 0 -124 129 -203 239 -147 98 51 119 182 41 260 -17 16 -30 31 -30 34 0 2
18 12 40 22 l40 18 0 134 0 133 -165 0 -165 0 0 -135z m228 107 c9 -7 12 -40
10 -133 l-3 -124 -70 0 -70 0 -3 119 c-1 66 0 126 2 133 6 15 112 18 134 5z
m1 -310 c64 -34 87 -110 54 -179 -59 -125 -253 -79 -253 60 0 106 105 169 199
119z"/>
<path d="M3486 47355 c-9 -14 -25 -25 -35 -25 -29 0 -33 -12 -11 -35 12 -12
19 -32 17 -50 -2 -25 1 -29 18 -27 35 6 59 6 78 -2 14 -7 17 -3 17 27 0 19 7
40 15 47 23 19 18 40 -10 40 -17 0 -29 8 -37 25 -6 14 -17 25 -23 25 -7 0 -20
-11 -29 -25z"/>
<path d="M9095 47710 c-11 -4 -84 -73 -162 -152 -139 -141 -142 -145 -187
-248 -53 -121 -56 -146 -21 -162 21 -9 39 -5 132 36 108 47 108 47 261 199
l152 152 0 47 c0 36 -6 54 -27 79 -42 49 -101 69 -148 49z m111 -51 c13 -12
28 -37 34 -55 12 -36 5 -57 -28 -87 -20 -18 -20 -18 -27 12 -7 35 -76 101
-105 101 -28 0 -25 15 7 40 34 27 84 22 119 -11z m-78 -95 c55 -58 48 -84 -56
-187 -85 -85 -88 -87 -115 -75 -15 7 -30 21 -33 31 -3 10 -16 23 -27 28 -12 6
-30 23 -38 38 l-17 29 87 85 c47 46 93 87 101 90 28 10 65 -5 98 -39z m-283
-192 c5 -11 19 -23 31 -26 14 -4 24 -15 26 -29 2 -14 11 -23 25 -25 36 -5 36
-30 0 -46 -202 -87 -197 -86 -197 -60 0 27 84 214 95 211 6 -2 14 -13 20 -25z"/>
<path d="M10915 47701 c-16 -10 -89 -79 -161 -152 -128 -132 -132 -136 -178
-243 -75 -174 -54 -195 120 -120 108 47 111 49 247 183 178 175 185 188 146
267 -15 31 -32 48 -63 63 -52 26 -73 26 -111 2z m126 -50 c45 -45 51 -83 18
-125 -27 -34 -35 -33 -43 5 -7 39 -56 88 -95 95 -38 8 -39 16 -5 43 42 33 80
27 125 -18z m-95 -66 c29 -19 57 -80 48 -108 -9 -28 -144 -168 -155 -161 -5 3
-9 14 -9 26 0 26 -72 98 -98 98 -12 0 -23 4 -26 8 -5 9 117 133 149 151 22 12
59 7 91 -14z m-198 -185 c18 -11 40 -36 49 -56 27 -56 8 -78 -111 -130 -105
-47 -126 -52 -126 -30 0 20 80 198 98 219 20 22 49 22 90 -3z"/>
<path d="M12402 46133 c-92 -45 -111 -183 -37 -258 67 -66 165 -67 231 -1 78
78 59 212 -36 261 -38 20 -117 19 -158 -2z m165 -39 c83 -63 58 -201 -43 -234
-158 -52 -252 181 -101 251 51 23 98 18 144 -17z"/>
<path d="M12790 46142 c-59 -26 -100 -88 -100 -150 0 -143 160 -218 269 -126
115 96 46 285 -104 283 -27 0 -57 -3 -65 -7z m102 -22 c64 -18 111 -99 94
-164 -10 -40 -55 -85 -96 -97 -33 -10 -47 -9 -86 6 -57 22 -84 62 -84 127 0
69 52 124 130 137 3 1 22 -4 42 -9z"/>
<path d="M10763 45945 c-12 -8 -27 -30 -33 -49 -9 -28 -17 -35 -47 -41 -22 -4
-50 -20 -70 -40 l-33 -33 0 -151 c0 -238 3 -241 267 -241 249 0 263 10 271
187 7 148 -3 206 -39 243 -19 18 -45 32 -69 36 -33 5 -40 11 -45 35 -11 47
-48 69 -119 69 -39 0 -70 -6 -83 -15z m276 -130 c45 -23 53 -57 49 -210 -3
-136 -3 -137 -31 -161 -28 -23 -32 -24 -213 -24 -183 0 -185 0 -209 25 -24 23
-25 28 -25 179 l0 154 31 26 c30 26 32 26 200 26 129 0 177 -3 198 -15z"/>
<path d="M10791 45716 c-32 -18 -50 -53 -51 -97 0 -47 30 -85 78 -98 78 -22
153 53 131 131 -18 68 -95 99 -158 64z m114 -29 c60 -51 20 -151 -61 -151 -74
0 -113 96 -59 149 32 33 84 33 120 2z"/>
<path d="M6983 45845 c-18 -8 -42 -29 -53 -47 -19 -30 -20 -46 -18 -185 l3
-153 33 -32 32 -33 200 0 200 0 32 33 33 32 3 148 c5 238 -10 252 -268 252
-119 -1 -174 -5 -197 -15z m413 -48 c23 -27 24 -35 24 -165 l0 -136 -76 74
-75 75 -30 -34 -31 -33 -47 46 -47 47 -87 -88 -87 -88 0 138 0 139 30 29 30
30 186 -3 186 -3 24 -28z m-236 -202 l44 -45 33 32 33 32 73 -72 72 -73 -28
-25 c-28 -24 -31 -24 -207 -24 -174 0 -180 1 -206 24 l-28 23 80 87 c43 47 81
86 84 86 3 0 26 -20 50 -45z"/>
<path d="M8753 45844 c-61 -31 -68 -52 -68 -219 0 -165 5 -183 58 -215 29 -18
51 -20 210 -20 263 0 267 3 267 240 l0 150 -34 38 -34 37 -184 3 c-153 2 -188
0 -215 -14z m406 -40 l31 -26 0 -154 c0 -151 -1 -156 -25 -179 -24 -25 -26
-25 -209 -25 -181 0 -185 1 -213 24 -28 24 -28 25 -31 161 -6 222 -3 224 245
225 170 0 172 0 202 -26z"/>
<path d="M1650 45775 c-73 -42 -105 -55 -136 -55 -58 0 -74 -21 -74 -98 0 -54
3 -63 26 -81 16 -13 41 -21 65 -21 27 0 60 -14 124 -52 74 -44 90 -50 113 -42
l27 9 3 180 c3 174 2 181 -19 198 -12 9 -24 17 -28 17 -3 0 -49 -25 -101 -55z
m118 13 c13 -13 18 -291 6 -322 -10 -25 -30 -19 -115 32 l-80 47 3 80 3 79 80
48 c90 53 87 52 103 36z"/>
<path d="M3545 45809 c-22 -12 -65 -36 -96 -55 -38 -23 -69 -34 -95 -34 -22 0
-44 -4 -50 -8 -21 -14 -34 -51 -34 -97 0 -62 32 -95 90 -95 32 0 61 -12 126
-50 92 -55 113 -59 137 -32 14 16 17 44 17 185 0 154 -2 169 -20 187 -25 25
-26 25 -75 -1z m63 -182 c2 -142 0 -168 -13 -173 -8 -3 -50 15 -95 41 l-80 47
0 81 0 82 78 47 c42 25 84 46 92 45 13 -2 15 -30 18 -170z"/>
<path d="M5320 45775 c-74 -43 -104 -55 -137 -55 -55 0 -73 -25 -73 -101 0
-50 3 -60 26 -78 16 -13 41 -21 65 -21 27 0 60 -14 122 -51 144 -85 159 -69
155 164 -3 153 -4 159 -27 178 -13 10 -26 19 -30 19 -3 0 -49 -25 -101 -55z
m119 11 c8 -9 11 -64 9 -172 -3 -186 -2 -184 -99 -128 -100 59 -99 57 -99 140
l0 73 83 50 c45 28 85 51 88 51 4 0 12 -6 18 -14z"/>
<path d="M5532 45789 c2 -7 19 -17 38 -20 99 -21 149 -130 98 -220 -21 -38
-84 -79 -121 -79 -9 0 -17 -7 -17 -16 0 -20 48 -11 100 18 108 59 117 216 17
292 -40 31 -123 49 -115 25z"/>
<path d="M9323 45773 l-63 -25 0 -124 c0 -120 1 -125 23 -133 12 -5 46 -18 75
-30 52 -21 52 -21 72 -1 18 18 20 34 20 161 0 77 -5 149 -10 160 -14 25 -42
23 -117 -8z m97 -147 c0 -80 -4 -147 -9 -150 -5 -3 -34 5 -65 19 l-56 25 0
104 0 103 48 21 c85 38 82 42 82 -122z"/>
<path d="M12339 45765 c-36 -19 -61 -76 -57 -128 l3 -42 83 -3 82 -3 0 -45 c0
-92 49 -134 155 -134 30 0 55 -3 55 -6 0 -3 -13 -23 -30 -44 -33 -42 -36 -50
-18 -50 7 0 30 21 52 46 l41 46 34 -46 c19 -25 41 -46 48 -46 20 0 16 12 -17
50 -16 19 -29 38 -30 43 0 4 32 7 70 7 142 0 170 32 170 196 l0 106 -34 34
-34 34 -273 0 c-218 -1 -279 -4 -300 -15z m587 -38 c24 -21 28 -32 32 -104 5
-99 -9 -148 -48 -168 -36 -18 -359 -22 -392 -4 -27 14 -48 69 -48 124 l0 45
-80 0 -80 0 0 31 c0 34 15 68 39 86 12 9 89 12 283 13 265 0 267 0 294 -23z"/>
<path d="M13090 45701 l-65 -27 -3 -76 -3 -75 63 -26 c116 -49 128 -40 128 99
0 80 -3 106 -16 118 -20 21 -26 20 -104 -13z m90 -99 c0 -54 -3 -101 -6 -104
-3 -3 -31 4 -62 17 l-57 23 -3 56 -3 57 53 24 c29 13 59 24 66 24 9 1 12 -25
12 -97z"/>
<path d="M5015 44123 c-91 -48 -138 -141 -117 -234 9 -39 9 -60 0 -90 -24 -82
36 -171 124 -184 24 -3 180 -5 348 -3 271 3 309 5 338 21 45 25 72 72 72 127
0 61 -29 106 -85 131 -33 15 -45 26 -50 49 -14 62 -105 106 -162 78 -27 -14
-30 -13 -79 33 -42 38 -61 49 -110 58 -32 7 -78 16 -102 21 -62 15 -143 11
-177 -7z m129 -12 c15 -6 12 -11 -22 -34 -44 -28 -86 -92 -97 -144 -4 -22 -12
-33 -24 -33 -9 0 -27 -7 -40 -16 -19 -14 -25 -14 -32 -3 -25 40 4 142 54 187
43 40 118 60 161 43z m181 -40 c38 -17 98 -74 107 -101 3 -9 14 -6 38 9 19 11
47 21 62 21 36 0 78 -38 86 -79 6 -28 14 -36 51 -50 24 -9 53 -28 64 -43 25
-33 26 -98 3 -134 -35 -52 -58 -55 -416 -52 l-330 3 -32 33 c-28 28 -33 39
-33 81 0 59 28 95 87 113 31 9 38 16 38 36 0 40 39 110 75 138 61 46 134 56
200 25z"/>
<path d="M1526 44105 c-77 -27 -127 -83 -149 -162 -8 -30 -17 -43 -28 -43 -45
0 -109 -86 -109 -146 0 -38 37 -98 73 -120 30 -18 55 -19 372 -19 308 0 343 2
373 18 102 56 94 211 -12 258 -31 13 -45 27 -54 53 -24 66 -98 100 -161 74
-32 -13 -33 -12 -80 33 -67 65 -144 83 -225 54z m149 -34 c37 -17 98 -74 107
-101 2 -8 15 -5 41 10 67 40 147 1 147 -71 0 -20 5 -29 16 -29 31 0 85 -33 99
-61 8 -15 15 -46 15 -67 0 -50 -41 -98 -91 -107 -19 -3 -177 -5 -352 -3 l-319
3 -34 37 c-27 30 -34 46 -34 77 0 50 37 96 91 112 32 10 39 17 39 38 1 64 61
142 130 170 39 15 101 12 145 -8z"/>
<path d="M3356 44105 c-77 -27 -128 -83 -148 -162 -7 -31 -15 -43 -29 -43 -30
0 -88 -58 -100 -101 -25 -82 35 -171 123 -184 24 -3 180 -5 348 -3 271 3 309
5 338 21 102 56 95 210 -11 257 -32 14 -46 28 -55 54 -25 67 -102 102 -162 73
-31 -16 -31 -16 -72 29 -61 66 -149 89 -232 59z m149 -34 c37 -17 98 -74 107
-101 2 -8 15 -5 41 10 66 39 147 1 147 -70 0 -24 5 -29 37 -35 56 -10 93 -56
93 -115 0 -58 -26 -95 -78 -110 -24 -7 -148 -10 -360 -8 l-324 3 -35 39 c-32
35 -35 42 -30 83 6 53 36 89 89 105 31 9 38 16 38 36 0 40 39 110 75 138 61
46 134 56 200 25z"/>
<path d="M7028 44106 c-80 -29 -128 -80 -149 -159 -9 -33 -18 -47 -30 -47 -23
0 -76 -45 -94 -81 -32 -60 -4 -147 58 -185 28 -17 53 -19 216 -19 139 0 185 3
188 13 4 9 -35 12 -172 12 -196 0 -227 7 -258 59 -40 68 1 161 78 175 30 6 35
11 35 34 1 36 32 102 61 129 58 53 144 66 214 34 37 -17 98 -74 107 -101 2 -8
15 -5 41 10 67 40 147 1 147 -71 0 -20 5 -29 16 -29 31 0 85 -33 99 -61 34
-65 5 -148 -59 -169 -40 -13 -48 -30 -13 -30 35 0 82 34 100 73 36 76 10 157
-63 194 -30 16 -48 34 -61 62 -29 65 -96 95 -158 69 -32 -13 -33 -12 -80 33
-67 64 -144 83 -223 55z"/>
<path d="M8866 44108 c-58 -16 -132 -92 -148 -151 -11 -42 -18 -50 -54 -66
-106 -47 -114 -202 -12 -258 28 -15 59 -18 217 -18 139 0 185 3 188 13 4 9
-35 12 -171 12 -193 0 -229 7 -259 53 -10 15 -17 46 -17 71 0 36 6 50 30 74
16 17 44 33 61 37 32 7 34 10 44 68 8 47 57 104 110 128 97 44 201 6 261 -97
10 -17 12 -17 39 4 32 25 65 28 104 8 28 -15 51 -53 51 -85 0 -12 13 -22 39
-30 89 -26 119 -118 61 -185 -17 -18 -41 -37 -55 -40 -32 -8 -32 -26 0 -26 35
0 93 55 106 101 9 30 9 48 0 78 -12 43 -70 101 -101 101 -12 0 -21 10 -25 30
-9 40 -58 88 -99 95 -20 4 -47 1 -68 -8 -35 -15 -35 -14 -62 19 -52 65 -154
96 -240 72z"/>
<path d="M12613 44042 c-17 -11 -143 -278 -143 -302 0 -18 7 -20 74 -20 41 0
77 -3 79 -7 3 -5 -21 -64 -53 -132 -58 -124 -64 -151 -30 -151 25 0 362 386
358 408 -3 14 -18 18 -81 20 -42 2 -77 4 -77 6 0 2 16 38 36 80 45 99 41 106
-70 106 -44 0 -86 -4 -93 -8z m131 -96 c-19 -41 -34 -81 -34 -89 0 -21 22 -27
96 -27 l65 0 -137 -157 c-75 -87 -148 -169 -161 -183 l-24 -25 24 55 c13 30
39 85 57 121 45 90 40 99 -55 99 -41 0 -75 3 -75 8 0 4 28 67 62 140 l62 132
77 0 78 0 -35 -74z"/>
<path d="M10759 43927 c-19 -12 -45 -43 -58 -70 -33 -67 -24 -127 28 -178 108
-108 281 -39 281 113 0 122 -150 202 -251 135z m123 -7 c20 -6 50 -26 67 -46
60 -67 33 -175 -51 -209 -49 -19 -94 -14 -132 16 -101 79 -57 227 74 248 3 1
22 -4 42 -9z"/>
<path d="M7294 43771 c-85 -52 -58 -188 42 -207 72 -13 134 42 134 120 0 30
-7 45 -34 72 -40 40 -92 46 -142 15z m127 -30 c21 -22 29 -39 29 -66 0 -45
-45 -95 -85 -95 -40 0 -81 26 -95 59 -40 96 77 175 151 102z"/>
<path d="M9114 43756 c-27 -27 -34 -42 -34 -72 0 -108 119 -162 194 -88 74 75
20 194 -87 194 -31 0 -46 -7 -73 -34z m147 -15 c61 -62 14 -161 -77 -161 -39
0 -84 51 -84 95 0 51 44 95 95 95 27 0 44 -8 66 -29z"/>
<path d="M10837 42353 c-4 -3 -7 -17 -7 -30 0 -33 -24 -77 -88 -158 -70 -89
-92 -137 -92 -202 0 -65 13 -99 53 -142 41 -43 84 -61 147 -61 122 0 211 100
197 221 -7 60 -31 107 -97 189 -57 70 -89 131 -90 168 0 22 -10 28 -23 15z
m23 -102 c0 -5 31 -51 70 -101 79 -104 94 -142 88 -211 -14 -145 -185 -204
-289 -100 -84 83 -70 183 45 319 20 24 44 57 53 73 17 28 33 38 33 20z"/>
<path d="M12620 42303 c-28 -32 -70 -95 -92 -141 -36 -72 -42 -93 -46 -167 -4
-72 -1 -90 18 -130 26 -54 74 -96 127 -111 37 -10 38 -12 43 -65 6 -69 24 -66
28 5 3 53 3 54 38 61 45 8 117 78 134 130 8 23 11 68 8 116 -4 67 -11 91 -46
161 -37 76 -131 198 -152 198 -5 0 -32 -26 -60 -57z m109 -30 c146 -171 165
-387 41 -470 -52 -36 -70 -31 -70 18 0 30 8 50 32 80 17 21 28 42 24 46 -4 5
-17 -5 -29 -22 l-22 -30 -5 79 c-3 51 -10 81 -17 84 -10 3 -13 -19 -13 -85
l-1 -88 -29 34 c-16 19 -32 32 -36 28 -7 -6 26 -56 51 -77 9 -7 15 -28 15 -51
0 -34 -3 -39 -24 -39 -32 0 -86 39 -109 78 -62 106 -22 279 94 415 22 26 44
47 49 47 5 0 27 -21 49 -47z"/>
<path d="M9004 42265 c24 -94 19 -168 -15 -203 -40 -44 -99 -14 -85 44 9 34
-16 31 -48 -6 -73 -88 -56 -230 37 -304 32 -26 49 -31 107 -34 61 -4 75 -1
114 22 85 50 120 147 91 257 -19 78 -61 145 -127 204 -57 52 -84 59 -74 20z
m91 -76 c87 -97 117 -240 67 -321 -33 -53 -83 -81 -146 -81 -107 0 -176 70
-176 179 0 48 29 121 38 94 9 -30 36 -50 67 -50 64 0 113 85 102 177 -2 24 -1
43 3 43 4 0 24 -19 45 -41z"/>
<path d="M5330 42223 l-1 -48 -24 30 c-13 16 -27 26 -31 23 -3 -4 8 -25 25
-46 26 -33 31 -49 31 -91 0 -69 -19 -76 -71 -25 -33 32 -39 44 -39 80 0 24 -4
46 -10 49 -6 4 -10 -9 -10 -31 l0 -38 -28 27 c-27 26 -52 35 -52 19 0 -5 11
-19 25 -32 34 -32 32 -40 -12 -40 -28 0 -34 -3 -23 -10 8 -5 32 -10 52 -10 46
0 108 -49 108 -86 0 -22 -4 -24 -56 -24 -47 0 -61 5 -95 32 -21 17 -42 28 -46
24 -5 -4 5 -17 22 -29 l30 -22 -45 -5 c-58 -6 -58 -24 0 -30 l45 -5 -28 -21
c-15 -12 -27 -25 -27 -28 0 -13 19 -5 55 24 31 25 47 30 90 30 43 0 54 -3 58
-19 8 -30 -60 -91 -103 -92 -19 0 -44 -4 -55 -9 -22 -10 -13 -13 28 -10 34 2
34 -10 2 -40 -14 -13 -25 -27 -25 -32 0 -16 25 -7 52 19 l28 27 0 -37 c0 -20
5 -37 10 -37 6 0 10 20 10 45 0 39 6 52 38 87 52 55 72 48 72 -24 0 -45 -5
-59 -31 -91 -17 -21 -28 -41 -24 -45 4 -4 17 6 30 22 l24 30 3 -44 c4 -62 28
-66 28 -4 l0 48 30 -29 c43 -41 47 -25 5 25 -29 35 -35 49 -35 91 0 37 4 51
18 58 15 8 26 3 54 -27 28 -29 38 -48 43 -89 4 -29 11 -53 17 -53 6 0 8 14 4
35 -8 41 2 44 34 10 13 -14 27 -25 32 -25 16 0 7 25 -19 52 l-27 28 43 0 c25
0 40 4 36 10 -3 6 -28 10 -54 10 -42 0 -51 4 -85 39 -51 53 -44 71 26 71 45 0
59 -5 91 -31 43 -36 66 -30 25 6 l-28 24 42 3 c61 4 62 28 1 28 l-48 1 28 22
c15 13 27 29 27 36 0 8 -19 -2 -45 -23 -41 -34 -49 -37 -97 -34 -45 3 -53 6
-56 24 -4 28 59 84 96 84 38 0 72 11 72 22 0 5 -15 6 -35 2 -41 -7 -45 4 -10
36 14 13 25 27 25 32 0 16 -25 7 -53 -19 l-30 -28 6 38 c3 20 2 37 -3 37 -11
0 -20 -27 -20 -64 0 -24 -10 -41 -39 -70 -52 -51 -71 -44 -71 24 0 42 5 58 32
91 17 21 28 42 24 46 -4 4 -18 -6 -31 -22 l-24 -30 -1 48 c0 35 -4 47 -15 47
-11 0 -15 -12 -15 -47z"/>
<path d="M1612 42174 c-86 -43 -132 -121 -132 -221 1 -98 56 -184 145 -224 58
-27 149 -25 205 4 54 27 63 47 21 47 -61 0 -126 42 -157 102 -22 43 -18 115
11 164 28 47 90 84 144 84 44 0 36 19 -19 48 -63 32 -149 30 -218 -4z m188
-11 c3 -3 0 -8 -6 -10 -46 -16 -104 -66 -123 -105 -52 -108 -8 -228 103 -278
35 -16 37 -18 16 -25 -36 -11 -115 -7 -152 8 -43 18 -97 72 -114 114 -21 49
-18 139 7 190 38 78 131 128 219 117 25 -3 47 -8 50 -11z"/>
<path d="M3415 42161 c-74 -33 -145 -136 -145 -209 0 -31 19 -37 29 -8 10 25
43 42 62 31 5 -4 14 -18 19 -31 10 -26 30 -33 30 -11 0 16 32 47 48 47 6 0 18
-7 26 -16 13 -12 16 -41 16 -150 0 -133 0 -135 25 -146 29 -13 55 3 55 33 0
23 -16 25 -24 4 -3 -8 -10 -15 -16 -15 -6 0 -10 49 -10 134 0 105 3 136 15
146 21 18 48 8 63 -23 16 -33 28 -34 36 -3 11 45 71 45 82 -1 10 -38 29 -21
26 23 -12 156 -193 261 -337 195z m191 -30 c62 -28 147 -143 94 -126 -11 3
-31 0 -46 -8 -23 -12 -31 -12 -55 0 -25 13 -33 13 -58 0 -24 -12 -32 -12 -57
1 -25 13 -31 13 -57 -1 -26 -15 -30 -15 -52 -1 -14 9 -33 13 -45 9 -24 -8 -25
-3 -6 33 17 33 61 74 101 95 41 22 130 21 181 -2z"/>
<path d="M7309 42120 c-25 -14 -45 -68 -31 -82 9 -9 15 -3 23 21 13 38 48 55
83 42 39 -15 49 -66 18 -94 -16 -15 -48 -17 -240 -17 -191 0 -222 -2 -222 -15
0 -13 32 -15 226 -15 l226 0 30 30 c26 27 30 36 25 68 -4 20 -16 45 -28 55
-23 18 -84 22 -110 7z"/>
<path d="M6944 41901 c-16 -17 18 -21 174 -21 198 0 222 -6 222 -60 0 -39 -25
-62 -64 -58 -24 2 -34 10 -46 35 -17 37 -36 38 -32 2 3 -35 47 -69 88 -69 71
0 110 85 65 141 -19 23 -24 24 -211 29 -105 3 -194 3 -196 1z"/>
<path d="M3424 40429 c-17 -19 -19 -41 -22 -231 -3 -186 -5 -213 -23 -241 -23
-38 -24 -78 -4 -117 21 -42 53 -60 103 -60 37 0 50 6 78 34 29 29 34 41 34 79
0 29 -7 53 -20 70 -19 23 -20 40 -20 234 0 197 -1 211 -20 231 -27 29 -80 29
-106 1z m80 -15 c14 -13 16 -48 16 -225 0 -199 1 -211 22 -239 66 -90 -49
-194 -127 -115 -31 30 -33 82 -5 113 19 20 20 35 20 236 0 211 0 215 22 230
28 20 33 20 52 0z"/>
<path d="M1602 40424 c-22 -15 -22 -19 -22 -230 0 -197 -2 -217 -19 -235 -40
-43 -29 -118 22 -149 18 -11 40 -20 50 -20 35 0 79 31 93 66 16 38 12 64 -17
106 -17 23 -19 47 -19 236 0 207 0 211 -22 226 -12 9 -27 16 -33 16 -6 0 -21
-7 -33 -16z m48 -244 l0 -219 25 -25 c14 -14 25 -31 25 -39 0 -25 -41 -67 -65
-67 -24 0 -65 42 -65 67 0 8 11 25 25 39 l25 25 0 219 c0 189 2 220 15 220 13
0 15 -31 15 -220z"/>
<path d="M10793 40410 c-17 -10 -37 -28 -42 -39 -7 -11 -11 -84 -11 -174 0
-138 2 -157 20 -179 48 -61 142 -59 180 5 17 28 20 51 20 175 0 163 -9 194
-65 218 -45 19 -64 18 -102 -6z m111 -35 c26 -24 26 -25 26 -173 0 -135 -2
-150 -20 -170 -28 -30 -68 -38 -99 -21 -45 26 -52 52 -49 202 3 138 3 139 31
163 36 31 77 31 111 -1z"/>
<path d="M5330 40366 l-235 -52 -3 -182 c-2 -147 -5 -182 -16 -182 -26 0 -66
-59 -66 -97 0 -49 45 -93 95 -93 91 0 105 35 105 264 0 174 0 176 23 181 65
15 247 55 251 55 3 0 6 -50 6 -110 0 -107 -1 -111 -24 -120 -58 -22 -76 -111
-32 -155 47 -47 112 -43 150 9 20 26 21 41 21 279 0 245 -1 252 -20 254 -11 1
-126 -22 -255 -51z m250 -211 l0 -236 -25 -24 c-49 -50 -119 -17 -113 53 3 32
9 40 41 55 l37 19 0 134 c0 159 21 148 -190 100 l-145 -33 -6 -204 c-3 -112
-6 -205 -7 -206 -1 -1 -15 -9 -31 -18 -76 -39 -141 62 -75 114 15 12 33 21 40
21 11 0 14 35 14 180 0 99 1 180 3 180 1 0 99 22 217 49 118 27 221 49 228 50
9 1 12 -52 12 -234z"/>
<path d="M7170 40366 l-195 -53 -5 -179 -5 -179 -59 -5 c-70 -6 -106 -39 -106
-96 0 -70 86 -118 151 -84 44 24 49 56 49 294 l0 224 33 11 c17 5 95 26 171
46 77 20 145 39 153 42 10 4 13 -26 13 -161 l0 -166 -54 0 c-70 0 -105 -26
-113 -86 -5 -36 -1 -46 25 -75 40 -45 98 -47 140 -6 l27 27 3 250 c3 235 2
250 -15 249 -10 0 -106 -24 -213 -53z m200 -381 c0 -35 -6 -52 -25 -70 -30
-30 -54 -31 -89 -4 -32 25 -35 70 -6 99 15 15 33 20 70 20 l50 0 0 -45z m-400
-104 c0 -62 -24 -94 -68 -94 -83 0 -100 107 -22 136 8 3 32 6 53 6 l37 1 0
-49z"/>
<path d="M9140 40410 c-14 -5 -51 -16 -82 -24 l-58 -16 -2 -178 -3 -177 -57
-5 c-64 -6 -102 -33 -111 -78 -8 -41 17 -90 56 -108 42 -20 79 -13 113 21 24
24 24 27 24 209 0 167 2 185 18 190 9 2 50 14 90 26 l72 21 0 64 c0 70 -4 74
-60 55z m-144 -445 c10 -25 -6 -85 -27 -106 -26 -26 -65 -24 -94 6 -30 30 -31
54 -4 89 17 22 28 26 70 26 35 0 51 -4 55 -15z"/>
<path d="M12602 40307 c-72 -23 -161 -130 -162 -194 0 -16 -6 -23 -20 -23 -11
0 -34 -12 -51 -28 -58 -52 -36 -140 41 -163 37 -11 42 -10 65 11 21 20 25 33
25 81 0 38 -5 63 -15 73 -46 46 23 171 117 210 118 50 269 -32 285 -153 4 -29
1 -44 -11 -56 -11 -11 -16 -34 -16 -74 0 -47 4 -61 23 -79 28 -26 47 -27 88
-6 36 18 62 73 53 109 -7 30 -58 75 -85 75 -13 0 -19 7 -19 23 -1 36 -35 101
-75 140 -61 59 -159 81 -243 54z"/>
<path d="M10670 40066 c0 -65 66 -147 129 -161 31 -7 31 -7 31 -76 l0 -69 -36
0 c-24 0 -34 -4 -32 -12 3 -9 32 -14 86 -16 68 -2 82 0 82 13 0 11 -10 15 -35
15 l-35 0 0 69 c0 67 1 69 28 74 67 13 124 76 137 150 6 29 4 37 -8 37 -9 0
-17 -13 -20 -35 -13 -82 -77 -130 -164 -123 -44 4 -60 11 -88 38 -22 21 -37
48 -42 73 -10 47 -33 63 -33 23z"/>
<path d="M7066 38663 c-3 -3 -6 -24 -6 -45 l0 -38 -44 0 c-29 0 -52 -7 -71
-22 -48 -38 -55 -70 -55 -269 0 -282 -3 -279 290 -279 293 0 290 -3 290 279 0
199 -7 231 -55 269 -19 15 -42 22 -71 22 l-43 0 -3 43 c-2 23 -7 42 -13 42 -5
0 -11 -19 -13 -42 l-3 -43 -90 0 -89 0 0 39 c0 38 -10 57 -24 44z m-4 -168 c2
-30 8 -55 13 -55 6 0 11 25 13 55 l3 55 89 0 89 0 3 -55 c2 -30 8 -55 13 -55
6 0 11 25 13 55 l3 55 40 0 c31 0 47 -7 70 -29 27 -27 29 -35 29 -100 l0 -71
-260 0 -260 0 0 71 c0 65 2 73 29 100 23 22 39 29 70 29 l40 0 3 -55z m378
-276 c0 -110 -7 -142 -39 -166 -11 -9 -75 -12 -221 -12 -146 0 -210 3 -221 12
-32 24 -39 56 -39 166 l0 111 260 0 260 0 0 -111z"/>
<path d="M12650 38565 c-105 -52 -204 -95 -219 -95 -24 0 -30 -6 -39 -38 -14
-47 -40 -72 -84 -81 l-33 -7 0 -104 0 -104 33 -7 c44 -9 70 -34 84 -81 l11
-38 222 0 223 0 5 29 c9 42 47 82 87 90 31 6 35 11 38 42 2 29 9 39 37 52 34
16 34 16 28 72 -6 53 -5 56 31 90 l37 34 -45 89 -45 89 -55 -5 c-54 -4 -58 -3
-90 31 l-34 36 -192 -94z m201 39 c22 -27 66 -44 114 -44 l45 0 32 -65 32 -64
-21 -23 c-33 -37 -45 -67 -42 -109 2 -27 -2 -43 -11 -49 -12 -8 -16 0 -20 42
-5 50 -6 53 -40 59 -40 8 -78 48 -87 90 l-5 29 -149 0 c-82 0 -149 3 -149 8 1
5 154 82 199 100 4 1 15 -14 25 -34 13 -28 20 -34 28 -26 9 9 8 20 -4 46 -16
32 -16 34 5 44 30 14 33 14 48 -4z m-113 -202 c4 -56 26 -51 30 7 3 39 5 42
30 39 18 -2 28 -10 30 -23 7 -34 51 -83 87 -96 l35 -13 0 -76 0 -76 -35 -12
c-39 -15 -85 -64 -85 -93 0 -14 -7 -19 -29 -19 -27 0 -30 3 -33 37 -4 52 -28
56 -28 4 l0 -41 -157 0 -158 1 -20 42 c-15 31 -31 47 -62 62 l-42 20 0 75 0
75 42 20 c32 15 48 32 66 68 l23 48 152 -3 151 -3 3 -43z"/>
<path d="M3501 38296 c-222 -222 -329 -336 -321 -341 8 -5 125 105 341 321
293 293 349 354 321 354 -4 0 -157 -150 -341 -334z"/>
<path d="M5050 38437 l0 -152 183 -183 182 -182 150 150 150 150 -185 185
-185 185 -147 0 -148 0 0 -153z m455 -47 l170 -170 -125 -125 c-69 -69 -129
-125 -135 -125 -5 0 -85 75 -177 167 l-168 168 0 121 c0 66 3 124 7 127 3 4
63 7 132 7 l126 0 170 -170z"/>
<path d="M10603 38560 c-37 -22 -53 -48 -53 -84 0 -23 -4 -26 -35 -26 -24 0
-35 -5 -35 -15 0 -10 11 -15 35 -15 l35 0 0 -55 0 -55 -35 0 c-24 0 -35 -5
-35 -15 0 -10 11 -15 35 -15 l35 0 0 -55 0 -55 -35 0 c-24 0 -35 -5 -35 -15 0
-10 11 -15 35 -15 32 0 35 -2 35 -31 0 -22 10 -41 34 -65 l34 -34 206 0 c304
0 296 -8 296 285 0 291 6 285 -287 285 -178 0 -201 -2 -230 -20z m462 -35 c25
-24 25 -25 25 -230 0 -276 21 -255 -258 -255 -203 0 -209 1 -229 23 -12 12
-23 33 -25 47 -3 22 2 26 30 30 18 3 33 10 33 15 0 6 -15 12 -33 15 -32 5 -33
6 -33 55 0 49 1 50 33 55 18 3 33 10 33 15 0 6 -15 12 -33 15 -32 5 -33 6 -33
55 0 49 1 50 33 55 41 6 43 23 2 30 -17 3 -31 8 -30 13 0 4 0 14 0 22 0 9 11
27 25 40 24 25 25 25 230 25 205 0 206 0 230 -25z"/>
<path d="M10806 38388 c-21 -30 -20 -43 5 -67 l21 -19 -21 -7 c-29 -9 -71 -62
-71 -90 0 -30 16 -35 105 -35 90 0 105 5 105 36 0 34 -26 70 -60 84 -28 12
-28 12 -9 31 23 23 24 52 3 73 -22 23 -60 20 -78 -6z"/>
<path d="M9056 38554 c-9 -8 -16 -24 -16 -35 0 -18 -9 -19 -156 -19 -120 0
-155 -3 -152 -12 4 -10 46 -14 156 -16 139 -2 152 -4 152 -21 0 -31 33 -51 84
-51 60 0 86 14 86 45 0 23 4 25 45 25 33 0 45 4 45 15 0 11 -12 15 -45 15 -40
0 -45 2 -45 23 0 13 -5 28 -12 35 -18 18 -123 15 -142 -4z"/>
<path d="M1566 38504 c-87 -21 -188 -79 -264 -150 l-67 -64 69 -65 c226 -214
526 -214 752 0 l69 65 -65 62 c-142 137 -324 193 -494 152z m229 -29 c82 -22
165 -68 232 -131 l58 -54 -57 -53 c-96 -90 -232 -147 -348 -147 -116 0 -252
57 -348 147 l-57 53 58 54 c133 124 303 172 462 131z"/>
<path d="M1628 38384 c-30 -16 -58 -61 -58 -94 0 -53 57 -110 110 -110 53 0
110 57 110 110 0 34 -28 78 -60 95 -36 19 -67 19 -102 -1z m113 -33 c20 -20
29 -39 29 -61 0 -43 -47 -90 -90 -90 -43 0 -90 47 -90 90 0 43 47 90 90 90 22
0 41 -9 61 -29z"/>
<path d="M3405 38507 c-101 -27 -195 -80 -282 -160 -24 -22 -43 -47 -43 -56 0
-9 17 -33 38 -53 47 -45 151 -118 169 -118 28 0 11 20 -54 63 -38 25 -81 59
-97 76 l-30 31 30 31 c46 48 153 117 219 140 71 26 182 35 245 20 25 -5 49 -6
54 -1 29 29 -162 49 -249 27z"/>
<path d="M3730 38446 c0 -8 9 -18 20 -21 11 -4 54 -33 96 -66 85 -68 85 -67 4
-134 -134 -110 -291 -156 -425 -125 -47 11 -68 -2 -34 -21 15 -8 60 -13 119
-13 111 0 200 27 292 88 70 46 148 118 148 136 0 18 -83 95 -147 136 -57 37
-73 41 -73 20z"/>
<path d="M8832 38358 c-7 -7 -12 -22 -12 -35 0 -21 -5 -23 -46 -23 -59 0 -55
-24 4 -28 37 -3 42 -6 42 -27 0 -31 27 -45 88 -45 51 0 82 20 82 53 0 14 19
17 152 19 110 2 152 6 156 16 3 9 -32 12 -152 12 l-156 0 0 23 c0 36 -19 47
-85 47 -34 0 -66 -5 -73 -12z"/>
<path d="M9051 38151 c-6 -11 -11 -27 -11 -35 0 -14 -21 -16 -155 -16 -97 0
-155 -4 -155 -10 0 -6 58 -10 153 -10 l153 0 9 -32 10 -33 75 0 75 0 5 30 c5
27 9 30 48 33 23 2 42 7 42 12 0 5 -19 10 -42 12 -39 3 -43 6 -48 33 -5 30 -6
30 -77 33 -63 2 -73 0 -82 -17z"/>
<path d="M6932 36838 c-7 -7 -12 -41 -12 -81 0 -65 -2 -72 -35 -108 l-35 -39
0 -161 0 -161 34 -34 34 -34 262 0 262 0 34 34 34 34 0 161 0 161 -35 39 c-33
36 -35 43 -35 108 0 40 -5 74 -12 81 -9 9 -78 12 -248 12 -170 0 -239 -3 -248
-12z m486 -139 l3 -126 -88 -53 c-78 -47 -95 -53 -148 -55 -56 -1 -66 2 -152
53 l-93 54 0 123 c0 67 3 125 7 129 4 3 110 5 237 4 l231 -3 3 -126z m-439
-181 c47 -28 94 -57 104 -64 16 -10 7 -20 -84 -87 -57 -42 -107 -73 -111 -71
-9 6 -11 274 -2 274 3 0 45 -23 93 -52z m501 -82 c0 -74 -4 -137 -9 -140 -7
-5 -215 143 -209 149 11 10 204 124 211 125 4 0 7 -60 7 -134z m-257 -7 c12
-7 68 -46 124 -87 69 -51 99 -79 90 -84 -16 -10 -498 -10 -514 0 -9 5 14 28
70 69 162 120 180 128 230 102z"/>
<path d="M8759 36833 c-11 -13 -14 -81 -14 -348 0 -267 3 -335 14 -348 12 -15
42 -17 252 -17 234 0 238 0 253 22 24 34 24 669 0 692 -13 14 -50 16 -253 16
-210 0 -240 -2 -252 -17z m480 -17 c8 -9 11 -107 9 -337 l-3 -324 -235 0 -235
0 -3 324 c-2 230 1 328 9 337 9 11 57 14 229 14 172 0 220 -3 229 -14z"/>
<path d="M5304 36831 c-32 -14 -220 -149 -253 -181 -35 -36 -41 -64 -41 -207
0 -126 11 -167 55 -201 27 -21 36 -22 277 -22 274 0 294 4 323 60 21 41 22
298 0 339 -14 28 -105 102 -216 175 -59 39 -110 52 -145 37z m202 -112 c111
-80 141 -105 133 -113 -2 -2 -56 -35 -119 -73 -110 -65 -118 -69 -175 -68 -57
1 -69 6 -173 69 -62 37 -112 73 -112 80 0 12 123 107 215 165 70 45 93 39 231
-60z m-346 -210 c55 -33 100 -63 100 -67 -1 -4 -46 -40 -101 -81 -80 -59 -103
-71 -110 -60 -12 19 -12 269 1 269 5 0 54 -27 110 -61z m490 -73 c0 -78 -4
-137 -10 -141 -11 -7 -214 144 -206 153 11 10 201 122 209 122 4 0 7 -60 7
-134z m-214 -37 c111 -78 174 -130 169 -140 -8 -12 -512 -12 -520 0 -3 5 47
48 112 95 139 103 152 105 239 45z"/>
<path d="M10597 36812 c-15 -17 -17 -56 -17 -350 0 -402 -10 -374 137 -370 65
2 98 7 100 15 3 9 -23 13 -99 15 l-103 3 0 335 0 335 232 3 233 2 2 -231 c2
-175 6 -233 16 -237 9 -3 12 48 12 231 0 201 -2 238 -16 251 -13 14 -50 16
-248 16 -213 0 -234 -2 -249 -18z"/>
<path d="M12422 36778 c-7 -7 -12 -40 -12 -80 0 -66 -1 -68 -25 -68 -37 0 -86
-23 -115 -54 -24 -27 -25 -33 -28 -190 -3 -153 -2 -163 18 -189 19 -24 28 -27
86 -27 l64 0 0 -60 0 -60 270 0 270 0 0 60 0 60 64 0 c58 0 67 3 86 27 20 26
21 36 18 189 -3 157 -4 163 -28 190 -29 31 -78 54 -115 54 -24 0 -25 2 -25 68
0 40 -5 73 -12 80 -9 9 -80 12 -258 12 -178 0 -249 -3 -258 -12z m496 -80 c3
-63 1 -68 -18 -68 -17 0 -20 6 -20 40 l0 40 -200 0 -200 0 0 -40 c0 -33 -3
-40 -20 -40 -18 0 -20 7 -20 63 0 35 3 67 7 71 4 3 110 5 237 4 l231 -3 3 -67z
m-58 -38 l0 -30 -180 0 -180 0 0 30 0 30 180 0 180 0 0 -30z m196 -94 l34 -34
0 -155 c0 -150 -1 -156 -22 -171 -13 -9 -43 -16 -70 -16 -41 0 -48 3 -48 20 0
13 7 20 20 20 19 0 20 7 20 120 0 108 -2 120 -19 130 -12 6 -123 10 -291 10
-168 0 -279 -4 -291 -10 -17 -10 -19 -22 -19 -130 0 -113 1 -120 20 -120 13 0
20 -7 20 -20 0 -17 -7 -20 -48 -20 -27 0 -57 7 -70 16 -21 15 -22 21 -22 171
l0 155 34 34 34 34 342 0 342 0 34 -34z m-90 -131 c14 -56 19 -55 -286 -55
-305 0 -300 -1 -286 55 l6 25 280 0 280 0 6 -25z m-46 -220 l0 -135 -240 0
-240 0 0 135 0 135 240 0 240 0 0 -135z"/>
<path d="M1846 36719 c-103 -81 -51 -239 79 -239 131 0 182 173 71 241 -43 26
-115 25 -150 -2z m154 -24 c33 -30 44 -72 31 -115 -16 -53 -52 -80 -108 -80
-38 0 -50 5 -79 34 -27 27 -34 42 -34 74 0 96 120 151 190 87z"/>
<path d="M1402 36664 c-44 -31 -52 -63 -52 -214 0 -234 -5 -230 339 -230 l249
0 31 26 c17 14 36 42 42 62 13 47 8 144 -8 150 -10 3 -13 -16 -13 -70 0 -113
-2 -113 -124 -22 -58 43 -106 81 -106 85 0 4 12 14 26 24 18 11 23 20 16 27
-7 7 -23 2 -48 -16 -50 -33 -91 -33 -141 2 -102 69 -193 138 -193 145 0 19 62
27 201 27 93 0 149 4 149 10 0 6 -64 10 -173 10 -140 0 -177 -3 -195 -16z
m111 -139 c53 -38 96 -72 96 -75 0 -12 -211 -160 -219 -155 -11 7 -14 298 -4
308 8 8 9 8 127 -78z m328 -176 c60 -44 107 -85 103 -90 -7 -12 -511 -12 -519
1 -3 5 43 46 102 90 99 73 112 80 156 80 45 0 56 -6 158 -81z"/>
<path d="M3232 36664 c-44 -31 -52 -63 -52 -214 0 -234 -5 -230 339 -230 l249
0 31 26 c44 37 54 81 49 230 -4 140 -13 170 -64 192 -17 8 -108 12 -277 12
-213 0 -256 -2 -275 -16z m523 -14 c14 -5 23 -14 20 -20 -3 -5 -56 -46 -117
-90 -126 -91 -150 -97 -215 -52 -102 69 -193 138 -193 145 0 4 10 12 23 17 30
12 449 12 482 0z m-412 -125 c53 -38 96 -72 96 -75 0 -12 -211 -160 -219 -155
-11 7 -14 298 -4 308 8 8 9 8 127 -78z m471 69 c9 -25 7 -277 -3 -293 -7 -11
-31 2 -115 65 -58 43 -105 81 -104 85 4 8 200 157 209 158 4 1 10 -6 13 -15z
m-143 -245 c60 -45 106 -85 103 -90 -7 -13 -511 -12 -519 1 -3 5 43 46 102 90
100 74 112 80 157 80 46 0 56 -5 157 -81z"/>
<path d="M10904 36311 c-34 -21 -64 -75 -64 -116 0 -30 21 -75 44 -94 12 -10
16 -34 16 -102 0 -95 9 -109 45 -69 10 11 23 20 30 20 7 0 20 -9 30 -20 36
-40 45 -26 45 69 0 70 3 91 17 102 20 17 43 71 43 101 0 94 -124 159 -206 109z
m126 -16 c65 -34 76 -121 24 -176 -52 -54 -139 -44 -177 20 -59 99 50 209 153
156z"/>
<path d="M3292 34968 c-7 -7 -12 -17 -12 -24 0 -6 -19 -14 -42 -17 -31 -4 -51
-14 -70 -37 l-28 -30 0 -220 0 -220 29 -32 29 -33 289 -3 c322 -4 353 0 383
51 18 29 20 51 20 207 0 193 -6 216 -58 222 -25 3 -27 6 -32 63 -3 33 -9 66
-13 73 -11 17 -477 18 -495 0z m483 -73 l0 -60 -235 0 -235 0 -3 49 c-5 81
-21 77 240 74 l233 -3 0 -60z m-495 -25 c0 -18 -6 -33 -15 -36 -48 -19 13 -24
271 -24 177 0 293 -4 305 -10 18 -10 19 -23 19 -189 0 -161 -2 -181 -19 -202
l-19 -24 -300 -3 -300 -3 -28 25 -29 24 0 212 0 212 28 24 c16 14 41 24 58 24
26 0 29 -3 29 -30z"/>
<path d="M1364 34914 c-55 -27 -59 -45 -59 -280 l0 -214 33 -32 32 -33 294 -3
c245 -2 301 0 331 12 57 24 65 57 65 256 0 218 5 210 -150 210 l-111 0 -21 35
c-34 58 -57 65 -230 65 -117 0 -160 -4 -184 -16z m372 -39 c14 -14 22 -30 19
-35 -4 -6 -74 -10 -176 -10 -106 0 -169 -4 -169 -10 0 -6 105 -10 294 -10 254
0 297 -2 310 -16 13 -13 16 -44 16 -184 0 -93 -3 -176 -6 -185 -16 -41 -50
-45 -349 -45 l-287 0 -29 29 -29 29 0 197 c0 198 4 225 39 252 11 9 67 12 179
13 161 0 163 0 188 -25z"/>
<path d="M8933 34923 c-13 -2 -23 -11 -23 -18 0 -7 -10 -15 -22 -17 -13 -2
-22 -7 -21 -13 2 -6 62 -11 149 -13 115 -2 145 0 142 10 -3 7 -14 14 -26 16
-12 2 -22 9 -22 16 0 22 -104 33 -177 19z"/>
<path d="M7070 34885 c-20 -21 -33 -25 -99 -27 -44 -2 -75 -7 -74 -13 1 -5 11
-11 22 -13 23 -4 20 8 61 -242 17 -102 35 -195 41 -208 9 -22 11 -22 161 -20
l153 3 40 230 c38 217 41 230 63 233 12 2 22 10 22 18 0 11 -17 14 -78 14 -71
0 -81 2 -102 25 -21 23 -31 25 -105 25 -74 0 -84 -2 -105 -25z m310 -76 c0
-19 -53 -341 -65 -396 -5 -22 -9 -23 -138 -23 l-133 0 -33 193 c-18 105 -36
204 -38 220 l-5 27 206 0 c202 0 206 0 206 -21z"/>
<path d="M10670 34655 c0 -211 2 -245 15 -245 12 0 15 19 15 115 l0 115 160 0
c108 0 160 4 160 11 0 6 -16 30 -36 54 -38 47 -38 47 9 107 16 20 26 41 22 47
-4 7 -61 11 -161 11 -130 0 -154 2 -154 15 0 8 -7 15 -15 15 -13 0 -15 -34
-15 -245z m300 179 c0 -3 -13 -23 -30 -44 l-30 -38 30 -37 c17 -21 30 -39 30
-41 0 -2 -61 -4 -135 -4 l-135 0 0 85 0 85 135 0 c74 0 135 -3 135 -6z"/>
<path d="M12500 34655 c0 -211 2 -245 15 -245 12 0 15 19 15 115 l0 115 70 0
70 0 0 -30 0 -30 105 0 c69 0 105 4 105 11 0 6 -16 30 -36 54 l-36 44 36 44
c20 24 36 49 36 56 0 7 -29 11 -89 11 l-90 0 -3 33 -3 32 -82 3 c-65 2 -83 6
-83 17 0 8 -7 15 -15 15 -13 0 -15 -34 -15 -245z m170 100 l0 -85 -70 0 -70 0
0 85 0 85 70 0 70 0 0 -85z m151 -3 c-5 -10 -17 -24 -25 -32 -22 -18 -20 -36
9 -74 14 -18 25 -36 25 -40 0 -4 -28 -6 -62 -4 l-63 3 -3 83 -3 82 66 0 c61 0
65 -1 56 -18z"/>
<path d="M5053 34739 l-73 -91 0 -102 c0 -66 4 -106 12 -114 9 -9 101 -12 353
-12 252 0 344 3 353 12 8 8 12 48 12 113 l0 101 -73 89 -73 90 -219 2 -220 2
-72 -90z m487 46 l0 -25 -195 0 -195 0 0 25 0 25 195 0 195 0 0 -25z m28 -75
l23 -30 -65 0 c-64 0 -65 -1 -81 -33 -41 -87 -153 -88 -203 -2 -21 34 -23 35
-82 35 l-61 0 21 30 21 30 203 0 202 0 22 -30z m-348 -86 c19 -34 58 -61 103
-69 47 -9 115 22 140 65 l19 31 96 -3 97 -3 0 -100 0 -100 -330 0 -330 0 -3
89 c-2 49 -1 95 2 103 4 9 30 13 99 13 90 0 94 -1 107 -26z"/>
<path d="M8850 34810 c-19 -19 -20 -33 -20 -225 0 -262 -12 -245 178 -245 196
0 182 -19 182 245 0 264 14 245 -182 245 -125 0 -140 -2 -158 -20z m305 -225
l0 -210 -145 0 -145 0 -3 200 c-1 110 0 205 3 212 3 11 37 13 147 11 l143 -3
0 -210z"/>
<path d="M1550 33122 c-126 -64 -132 -208 -21 -437 79 -161 165 -245 250 -245
56 0 146 40 153 67 6 21 -27 108 -51 137 -19 23 -62 20 -102 -7 -19 -13 -39
-26 -45 -30 -29 -18 -93 63 -137 175 -42 104 -34 158 23 158 41 0 90 36 90 65
0 34 -45 122 -69 135 -27 14 -28 13 -91 -18z m50 -90 l28 -60 -31 -9 c-48 -13
-64 -50 -50 -115 15 -72 68 -183 111 -230 26 -29 42 -38 67 -38 18 0 38 7 45
15 7 8 16 15 20 15 11 0 62 -119 56 -129 -11 -17 -74 -22 -108 -8 -48 20 -129
114 -175 204 -101 193 -111 362 -25 407 15 8 28 13 30 11 2 -2 16 -30 32 -63z"/>
<path d="M12740 32975 l0 -126 128 3 127 3 -3 30 c-11 115 -110 214 -214 215
l-38 0 0 -125z m93 86 c37 -14 98 -72 112 -106 33 -80 38 -75 -74 -75 l-101 0
0 95 c0 104 3 108 63 86z"/>
<path d="M7103 33055 c-119 -55 -159 -217 -77 -314 l25 -30 -56 -97 c-63 -109
-69 -147 -23 -152 30 -4 39 6 105 121 l45 79 41 -6 c67 -10 137 16 185 68 71
77 79 170 21 260 -34 55 -109 96 -174 96 -22 0 -64 -11 -92 -25z m175 -26
c139 -68 131 -263 -13 -330 -50 -23 -89 -23 -140 0 -144 65 -152 261 -13 330
55 27 110 27 166 0z"/>
<path d="M7130 32998 c-55 -28 -83 -75 -82 -134 1 -84 62 -144 147 -144 56 0
99 23 127 68 25 41 26 111 1 155 -19 33 -92 77 -128 77 -11 0 -41 -10 -65 -22z
m107 -9 c42 -16 72 -48 84 -91 13 -51 -15 -119 -60 -142 -71 -37 -151 -11
-182 60 -16 36 -18 50 -10 82 21 76 98 118 168 91z"/>
<path d="M12607 33026 c-59 -22 -103 -62 -132 -121 -24 -47 -27 -64 -23 -124
4 -82 35 -135 106 -186 36 -25 55 -30 116 -33 81 -4 121 8 175 54 40 33 81
115 81 161 l0 32 -112 3 -113 3 -3 113 -3 112 -27 0 c-15 -1 -44 -7 -65 -14z
m71 -133 l3 -113 109 0 c123 0 123 0 95 -68 -33 -78 -107 -126 -195 -126 -160
0 -260 164 -190 309 30 62 106 117 155 112 19 -2 20 -10 23 -114z"/>
<path d="M5302 33018 c-49 -16 -99 -78 -107 -130 -7 -49 11 -107 45 -143 19
-20 19 -21 -25 -95 -24 -41 -44 -81 -45 -87 -1 -30 22 -8 66 65 l46 78 62 -4
c51 -3 66 0 96 20 78 53 101 137 60 217 -34 68 -124 104 -198 79z m115 -35
c47 -22 73 -66 73 -125 0 -39 -6 -54 -31 -82 -85 -98 -239 -38 -239 92 0 60
76 132 138 132 13 0 40 -8 59 -17z"/>
<path d="M8770 32947 c-25 -13 -25 -13 -25 -157 0 -144 0 -144 25 -157 19 -10
85 -13 268 -11 228 3 245 4 258 22 8 11 14 32 14 47 0 23 5 28 28 31 26 3 27
5 27 68 0 63 -1 65 -27 68 -23 3 -28 8 -28 31 0 15 -6 36 -14 47 -13 18 -30
19 -258 22 -183 2 -249 -1 -268 -11z m290 -30 c0 -7 -22 -69 -48 -137 l-48
-125 -88 -3 c-56 -2 -93 1 -102 9 -18 15 -20 239 -2 257 18 18 288 17 288 -1z
m204 7 c24 -9 24 -259 0 -268 -26 -10 -274 -7 -274 3 0 5 23 68 51 140 l51
131 78 0 c43 0 85 -3 94 -6z"/>
<path d="M10586 32934 c-13 -12 -16 -41 -16 -145 0 -182 -22 -169 283 -169
270 0 283 3 289 63 2 25 8 33 28 36 33 4 40 17 40 72 0 48 -10 64 -45 71 -14
2 -21 13 -23 33 -7 56 -4 55 -283 55 -221 0 -260 -2 -273 -16z m522 -16 c18
-18 16 -242 -2 -257 -9 -8 -86 -11 -257 -9 l-244 3 -3 124 c-2 82 1 128 9 137
16 19 478 21 497 2z"/>
<path d="M3375 32929 c-61 -10 -131 -36 -168 -61 -40 -29 -59 -72 -60 -145 -2
-82 10 -93 103 -93 52 0 71 4 83 18 19 21 22 68 7 106 -7 19 -5 30 8 46 34 41
223 51 308 15 l34 -14 -6 -69 c-9 -90 2 -102 95 -102 87 0 101 13 101 96 0 79
-23 120 -87 156 -88 50 -276 71 -418 47z m298 -34 c116 -24 177 -72 177 -140
0 -24 -2 -25 -70 -25 l-69 0 5 30 c14 70 -48 101 -200 101 -156 1 -212 -26
-204 -96 l4 -35 -74 0 -74 0 7 33 c15 69 61 104 173 131 75 19 240 19 325 1z"/>
<path d="M12560 31363 c1 -5 21 -33 45 -63 l45 -55 -149 -5 c-207 -7 -191 18
-191 -285 0 -240 0 -242 23 -263 23 -22 29 -22 343 -22 308 0 321 1 342 20 21
20 22 27 22 264 0 308 15 286 -194 286 l-147 0 47 60 c26 33 44 63 40 67 -4 4
-19 -8 -34 -27 -15 -19 -39 -48 -53 -64 l-25 -29 -49 62 c-43 55 -66 74 -65
54z m438 -159 c22 -15 22 -19 22 -249 0 -230 0 -234 -22 -249 -19 -14 -67 -16
-325 -16 -290 0 -304 1 -323 20 -19 19 -20 33 -20 245 0 212 1 226 20 245 19
19 33 20 323 20 258 0 306 -2 325 -16z"/>
<path d="M12389 31161 c-24 -19 -24 -22 -24 -204 0 -247 -20 -227 237 -227
185 0 199 1 218 20 19 19 20 33 20 205 0 244 20 225 -234 225 -176 0 -196 -2
-217 -19z m415 -17 c13 -13 16 -45 16 -193 0 -124 -4 -181 -12 -189 -9 -9 -68
-12 -204 -12 -242 0 -224 -17 -224 205 0 221 -17 205 220 205 158 0 191 -3
204 -16z"/>
<path d="M1505 31215 l-25 -24 0 -236 0 -236 25 -24 c23 -24 28 -25 179 -25
l155 0 20 26 c20 25 21 39 21 261 l0 234 -25 24 c-23 24 -28 25 -175 25 -147
0 -152 -1 -175 -25z m335 -15 c19 -19 20 -33 20 -245 0 -285 13 -265 -176
-265 -74 0 -144 5 -155 10 -18 10 -19 24 -19 255 0 222 2 245 18 254 9 6 79
11 155 11 124 0 139 -2 157 -20z"/>
<path d="M1556 31164 c-24 -23 -24 -355 0 -378 12 -13 38 -16 120 -16 58 0
114 5 125 10 18 10 19 23 19 190 0 149 -3 181 -16 194 -12 13 -39 16 -124 16
-85 0 -112 -3 -124 -16z m239 -189 l0 -180 -115 0 -115 0 -3 170 c-1 93 0 175
3 182 3 11 31 13 117 11 l113 -3 0 -180z"/>
<path d="M3170 31220 c-19 -19 -20 -33 -20 -265 0 -232 1 -246 20 -265 19 -19
33 -20 343 -20 276 0 326 2 345 16 22 15 22 18 22 269 0 251 0 254 -22 269
-19 14 -69 16 -345 16 -310 0 -324 -1 -343 -20z m680 -29 c15 -30 13 -452 -2
-474 -12 -16 -41 -17 -338 -15 l-325 3 -3 240 c-1 132 0 245 2 252 4 10 77 13
330 13 311 0 326 -1 336 -19z"/>
<path d="M3220 31161 c-6 -12 -10 -97 -10 -206 0 -109 4 -194 10 -206 10 -18
24 -19 273 -19 191 0 266 3 275 12 17 17 17 409 0 426 -9 9 -84 12 -275 12
-249 0 -263 -1 -273 -19z m535 -206 l0 -200 -260 0 -260 0 -3 190 c-1 104 0
195 3 202 3 11 58 13 262 11 l258 -3 0 -200z"/>
<path d="M5010 31220 c-20 -20 -21 -30 -18 -275 3 -225 1 -255 -12 -255 -41 0
-56 -71 -21 -90 13 -6 156 -10 395 -10 366 0 377 1 397 21 28 28 11 78 -26 79
-6 0 -9 88 -7 250 l3 250 -25 25 -25 25 -321 0 c-309 0 -321 -1 -340 -20z
m661 -10 c18 -10 19 -24 19 -255 0 -231 -1 -245 -19 -255 -12 -6 -133 -10
-322 -10 -267 0 -305 2 -321 17 -16 15 -18 36 -18 246 0 200 2 233 17 249 15
17 38 18 320 18 191 0 312 -4 324 -10z m-418 -560 c14 -17 29 -20 101 -20 74
0 87 3 99 20 13 19 23 20 148 18 130 -3 134 -4 137 -25 l3 -23 -385 0 c-257 0
-387 3 -391 10 -4 6 -4 17 -1 25 4 12 31 15 138 15 121 0 135 -2 151 -20z"/>
<path d="M5052 31152 c-9 -7 -12 -56 -10 -213 l3 -204 305 0 305 0 3 204 c2
157 -1 206 -10 213 -7 4 -141 8 -298 8 -157 0 -291 -4 -298 -8z m586 -209 l2
-193 -290 0 -290 0 0 188 c0 104 3 192 7 195 4 4 133 6 287 5 l281 -3 3 -192z"/>
<path d="M6802 31217 c-21 -23 -22 -31 -22 -263 0 -304 -12 -284 178 -284 112
0 132 -2 132 -15 0 -27 -47 -65 -78 -65 -33 0 -57 -22 -48 -45 5 -13 38 -15
226 -15 188 0 221 2 226 15 9 23 -15 45 -48 45 -31 0 -78 38 -78 65 0 13 20
15 133 15 189 0 177 -20 177 286 0 238 0 241 -23 262 -23 22 -27 22 -388 22
l-366 0 -21 -23z m758 -17 c19 -19 20 -33 20 -245 0 -212 -1 -226 -20 -245
-19 -19 -33 -20 -368 -20 -298 0 -351 2 -370 16 -22 15 -22 19 -22 245 0 216
1 230 20 249 19 19 33 20 370 20 337 0 351 -1 370 -20z m-290 -551 c0 -32 53
-79 89 -79 16 0 33 -4 36 -10 4 -7 -67 -10 -204 -10 -134 0 -211 4 -211 10 0
6 16 10 36 10 41 0 94 45 94 79 0 20 6 21 80 21 74 0 80 -1 80 -21z"/>
<path d="M6841 31146 c-8 -9 -11 -73 -9 -212 l3 -199 350 0 350 0 0 210 0 210
-341 3 c-282 2 -343 0 -353 -12z m679 -201 l0 -195 -335 0 -335 0 0 188 c0
104 3 192 7 195 3 4 154 7 335 7 l328 0 0 -195z"/>
<path d="M8629 31221 l-24 -19 0 -247 0 -247 24 -19 c22 -18 44 -19 386 -19
342 0 364 1 386 19 l24 19 0 247 0 247 -24 19 c-22 18 -44 19 -386 19 -342 0
-364 -1 -386 -19z m752 -11 c10 -6 19 -20 19 -30 0 -20 -9 -20 -385 -20 -327
0 -385 2 -385 14 0 8 7 22 16 30 13 14 61 16 365 16 222 0 357 -4 370 -10z
m19 -285 c0 -202 -1 -215 -19 -225 -13 -6 -148 -10 -370 -10 -304 0 -352 2
-365 16 -14 13 -16 48 -16 225 l0 209 385 0 385 0 0 -215z"/>
<path d="M8830 30970 l0 -110 183 2 182 3 0 105 0 105 -182 3 -183 2 0 -110z"/>
<path d="M10595 31215 l-25 -24 0 -236 0 -236 25 -24 24 -25 231 0 c217 0 231
1 250 20 19 19 20 33 20 263 0 242 0 244 -23 265 -23 21 -31 22 -251 22 l-227
0 -24 -25z m59 -154 c9 -8 75 -11 202 -9 l189 3 3 78 c2 54 7 77 15 77 34 0
37 -23 37 -255 0 -212 -2 -233 -18 -248 -10 -10 -22 -14 -25 -10 -4 3 -7 68
-7 143 0 92 -4 140 -12 148 -15 15 -355 17 -378 2 -12 -7 -16 -40 -20 -155 -5
-144 -5 -146 -25 -131 -19 14 -20 26 -20 251 0 225 1 237 20 251 19 15 20 13
23 -60 2 -47 8 -78 16 -85z m234 91 l3 -63 42 3 42 3 3 63 c3 58 4 62 27 62
24 0 25 -2 25 -75 l0 -76 -137 3 -138 3 -3 73 -3 73 68 -3 68 -3 3 -63z m140
-319 l3 -143 -186 0 -185 0 0 138 c0 76 3 142 7 146 4 3 86 5 182 4 l176 -3 3
-142z"/>
<path d="M1605 29446 c-37 -17 -80 -62 -94 -99 -22 -57 -13 -114 30 -197 34
-66 41 -93 46 -157 5 -62 11 -81 29 -100 31 -31 84 -31 120 1 25 21 28 32 33
107 5 70 11 93 38 139 57 99 60 183 11 253 -41 57 -145 83 -213 53z m145 -34
c46 -24 83 -93 77 -144 -3 -20 -22 -71 -43 -112 -34 -67 -42 -76 -66 -76 -26
0 -28 3 -28 39 0 22 -5 43 -11 47 -8 4 -10 -8 -8 -40 l4 -46 -35 1 c-34 0 -37
3 -73 77 -51 103 -52 164 -5 218 18 20 41 40 52 44 36 15 100 11 136 -8z"/>
<path d="M3432 29439 c-59 -29 -92 -88 -92 -161 0 -45 7 -69 40 -131 31 -58
40 -87 40 -124 0 -104 32 -153 98 -153 55 0 78 32 85 124 6 63 14 91 47 153
33 62 40 86 40 131 0 139 -133 222 -258 161z m154 -25 c44 -21 75 -72 77 -129
2 -35 -7 -63 -38 -124 -35 -69 -44 -80 -66 -81 -24 0 -27 5 -33 44 -4 24 -13
52 -21 62 -22 28 -18 34 19 34 19 0 38 5 41 10 4 6 -17 10 -54 10 -34 0 -61
-3 -61 -7 0 -3 11 -20 23 -37 13 -17 26 -50 29 -73 6 -43 6 -43 -25 -43 -30 1
-35 7 -72 81 -47 92 -51 146 -17 202 39 62 126 85 198 51z"/>
<path d="M8828 29373 c-54 -47 -98 -90 -98 -97 0 -21 111 -290 127 -308 14
-16 35 -18 158 -18 123 0 144 2 158 18 16 18 127 287 127 308 0 19 -199 186
-212 178 -7 -5 15 -31 63 -75 l74 -68 -210 0 -210 0 68 62 c59 55 83 88 60 86
-5 0 -52 -39 -105 -86z m90 -160 l-3 -68 -53 0 -54 0 -24 59 c-13 33 -24 63
-24 68 0 4 36 8 80 8 l81 0 -3 -67z m172 -3 l0 -70 -75 0 -75 0 0 70 0 70 75
0 75 0 0 -70z m180 62 c0 -5 -11 -35 -24 -68 l-24 -59 -54 0 -53 0 -3 68 -3
67 81 0 c44 0 80 -4 80 -8z m-180 -222 l0 -70 -75 0 -75 0 0 70 0 70 75 0 75
0 0 -70z"/>
<path d="M5285 29415 c-18 -18 -25 -35 -25 -65 0 -32 -4 -40 -18 -40 -39 0
-54 -25 -78 -131 -48 -216 -38 -229 181 -229 216 0 230 16 186 211 -29 124
-43 149 -83 149 -14 0 -18 8 -18 40 0 54 -34 90 -85 90 -25 0 -44 -8 -60 -25z
m-25 -196 c0 -81 24 -77 28 5 l3 57 57 -3 57 -3 3 -57 c4 -77 22 -75 22 2 0
53 2 60 19 60 27 0 27 -2 56 -133 26 -120 25 -141 -6 -157 -21 -12 -289 -13
-305 -2 -31 20 -32 47 -8 157 30 137 29 135 54 135 18 0 20 -6 20 -61z"/>
<path d="M7067 29408 c-9 -7 -23 -31 -30 -53 l-14 -40 -67 -5 c-99 -7 -106
-18 -106 -175 0 -68 3 -131 6 -140 16 -40 51 -45 324 -45 l262 0 29 29 c29 29
29 31 29 145 0 63 -5 126 -11 139 -15 33 -49 47 -114 47 -51 0 -54 1 -60 30
-3 16 -15 41 -26 55 -19 24 -26 25 -113 25 -58 0 -98 -5 -109 -12z m201 -31
c6 -6 13 -24 17 -40 l7 -27 -116 0 c-125 0 -127 1 -106 54 9 25 12 26 99 26
59 0 92 -4 99 -13z m142 -247 l0 -150 -235 0 -235 0 0 150 0 150 235 0 235 0
0 -150z"/>
<path d="M10400 29400 c0 -5 21 -10 48 -10 26 0 53 -4 59 -8 7 -4 49 -98 94
-207 44 -110 88 -206 97 -212 11 -9 58 -13 152 -13 94 0 141 4 152 13 21 15
128 277 128 310 0 14 -7 28 -16 31 -9 3 -133 6 -277 6 l-262 0 -22 50 -22 50
-65 0 c-37 0 -66 -4 -66 -10z m350 -190 l0 -70 -51 0 -50 0 -25 55 c-37 84
-36 85 51 85 l75 0 0 -70z m180 0 l0 -70 -80 0 -80 0 0 70 0 70 80 0 80 0 0
-70z m178 62 c-1 -4 -14 -35 -28 -70 l-25 -62 -52 0 -53 0 0 70 0 70 81 0 c44
0 79 -3 77 -8z m-178 -222 l0 -70 -80 0 -80 0 0 70 0 70 80 0 80 0 0 -70z"/>
<path d="M12230 29400 c0 -5 22 -10 48 -10 27 0 56 -6 65 -12 9 -7 53 -101 98
-208 45 -107 86 -201 92 -207 7 -9 50 -13 153 -13 121 0 144 2 144 15 0 13
-22 15 -138 15 l-139 0 -11 25 c-25 55 -25 55 142 55 132 0 157 3 175 18 18
15 111 218 111 243 0 5 -105 9 -245 9 -157 0 -245 -4 -245 -10 0 -6 82 -10
225 -10 174 0 225 -3 225 -12 -1 -7 -18 -53 -39 -103 -26 -60 -47 -94 -62
-102 -17 -9 -69 -12 -172 -10 l-148 2 -64 148 c-35 82 -69 155 -76 163 -13 16
-139 20 -139 4z"/>
<path d="M12960 27464 c-96 -79 -199 -163 -227 -185 l-53 -41 -46 51 c-25 28
-50 51 -55 51 -20 0 -5 -28 45 -84 l53 -59 238 194 c131 107 238 198 237 204
0 5 -4 10 -9 12 -4 1 -87 -63 -183 -143z"/>
<path d="M1387 27492 c-58 -59 -97 -105 -97 -118 0 -25 99 -124 125 -124 10 0
29 10 42 22 l23 21 0 -120 c0 -161 -10 -153 203 -153 206 0 197 -7 197 159 l0
114 23 -21 c13 -12 30 -22 38 -22 18 0 129 111 129 129 0 8 -44 58 -97 112
-95 97 -98 99 -144 99 -44 0 -47 -2 -53 -30 -15 -78 -111 -107 -167 -51 -17
17 -29 40 -29 55 0 24 -3 26 -48 26 -47 0 -49 -1 -145 -98z m176 33 c47 -98
185 -98 231 -1 27 57 48 49 154 -57 l92 -93 -50 -49 -50 -49 -38 37 c-21 20
-41 37 -45 37 -3 0 -8 -66 -9 -147 l-3 -148 -165 0 -165 0 -3 135 c-1 74 -5
141 -7 149 -4 11 -16 5 -43 -22 -21 -20 -42 -37 -47 -37 -13 0 -95 82 -95 94
0 6 39 50 87 98 102 102 128 111 156 53z"/>
<path d="M10760 27566 c-72 -16 -117 -37 -157 -70 -32 -27 -33 -30 -33 -105 0
-152 52 -275 165 -388 92 -92 110 -97 176 -47 52 40 127 131 159 194 29 58 50
139 57 226 6 81 5 83 -23 109 -42 39 -97 64 -173 81 -78 16 -98 16 -171 0z
m185 -31 c33 -9 81 -30 107 -47 47 -30 48 -31 48 -82 0 -64 -23 -172 -48 -228
-39 -87 -167 -228 -207 -228 -23 0 -127 103 -167 164 -45 69 -73 153 -83 249
-8 81 4 106 68 139 90 46 186 58 282 33z"/>
<path d="M12609 27570 c-57 -10 -132 -42 -176 -76 -32 -24 -33 -28 -33 -93 0
-176 93 -361 229 -455 50 -35 69 -31 134 25 93 80 187 247 187 331 0 38 -23
12 -37 -41 -27 -107 -119 -242 -198 -291 l-35 -22 -35 22 c-19 12 -55 44 -79
73 -89 100 -136 223 -136 349 0 67 0 68 38 92 65 44 121 59 212 60 69 0 96 -5
148 -26 38 -16 65 -22 68 -16 8 13 -7 23 -71 47 -61 23 -154 32 -216 21z"/>
<path d="M3326 27550 c-16 -5 -40 -19 -53 -32 -48 -45 -53 -67 -53 -233 0
-246 -2 -245 295 -245 294 0 295 1 295 230 l0 142 -35 62 c-20 36 -46 68 -60
74 -30 14 -344 15 -389 2z m399 -84 c40 -17 55 -42 55 -90 l0 -36 -79 0 c-94
0 -124 -17 -124 -70 0 -53 30 -70 124 -70 l79 0 0 -39 c0 -27 -7 -46 -25 -65
l-24 -26 -216 0 c-281 0 -265 -12 -265 195 0 86 4 155 11 166 21 40 63 48 252
49 131 0 186 -4 212 -14z m55 -196 l0 -50 -80 0 c-74 0 -81 2 -96 25 -15 23
-15 27 0 50 15 23 22 25 96 25 l80 0 0 -50z"/>
<path d="M6945 27454 c-41 -36 -75 -71 -75 -77 0 -19 295 -402 310 -402 15 0
310 383 310 402 0 6 -34 41 -75 77 l-76 66 -159 0 -159 0 -76 -66z m330 -7
c14 -24 25 -47 25 -50 0 -4 -54 -7 -120 -7 -66 0 -120 3 -120 7 0 3 11 26 25
50 l26 43 69 0 69 0 26 -43z m-198 -219 c29 -78 51 -143 49 -145 -3 -3 -190
241 -210 275 -5 9 7 12 51 12 l58 0 52 -142z m231 130 c-31 -93 -124 -338
-128 -338 -4 0 -97 245 -128 338 -3 9 27 12 128 12 101 0 131 -3 128 -12z
m140 4 c-7 -17 -211 -282 -214 -279 -2 2 20 67 49 145 l52 142 58 0 c32 0 57
-3 55 -8z"/>
<path d="M5081 27481 c-10 -6 -12 -24 -9 -65 4 -48 2 -56 -12 -56 -29 0 -41
-26 -38 -77 3 -43 6 -48 29 -51 24 -3 25 -5 21 -62 -6 -81 -1 -83 201 -77 89
3 168 6 175 7 6 0 36 0 66 0 109 -3 186 74 186 186 0 113 -95 195 -211 181
-36 -4 -49 -2 -53 9 -4 11 -36 14 -173 14 -92 0 -174 -4 -182 -9z m509 -60
c105 -55 109 -199 7 -275 -20 -15 -43 -20 -82 -20 -91 0 -155 65 -155 158 0
120 124 194 230 137z"/>
<path d="M5485 27403 c-39 -10 -75 -44 -86 -83 -15 -48 -6 -81 30 -123 27 -29
35 -32 86 -32 51 0 59 3 86 32 38 43 45 77 28 126 -21 60 -85 95 -144 80z m83
-33 c61 -37 69 -105 18 -156 -26 -26 -42 -34 -71 -34 -46 0 -105 53 -105 94 0
41 28 86 63 101 43 19 56 18 95 -5z"/>
<path d="M8763 27453 c-35 -21 -63 -41 -63 -45 0 -10 295 -404 309 -412 9 -6
305 375 316 407 3 7 -23 28 -59 50 l-65 37 -188 0 -188 0 -62 -37z m197 -85
l40 -23 0 -144 c0 -79 -2 -142 -4 -140 -9 10 -156 272 -156 277 0 8 61 50 73
51 4 1 26 -9 47 -21z m193 0 c18 -12 34 -23 35 -24 6 -4 -152 -284 -160 -284
-5 0 -8 62 -8 139 l0 138 38 26 c46 32 56 32 95 5z"/>
<path d="M3527 25959 c-26 -20 -26 -23 -29 -157 l-3 -137 -65 1 c-36 0 -83 6
-105 12 -76 21 -158 -21 -188 -96 -23 -57 -87 -352 -87 -399 0 -30 7 -47 25
-66 52 -51 125 -40 181 28 49 60 100 75 259 75 131 0 198 -15 231 -51 76 -82
99 -93 160 -77 49 13 69 42 68 102 -1 65 -67 345 -95 402 -35 74 -114 106
-195 78 -26 -9 -69 -14 -102 -12 l-57 3 -3 119 c-3 131 8 166 51 166 33 0 47
-19 47 -61 0 -79 82 -122 133 -70 18 17 22 33 22 83 0 40 -4 63 -12 65 -10 3
-13 -11 -13 -51 0 -57 -22 -96 -53 -96 -24 0 -47 36 -47 74 0 26 -7 44 -25 61
-29 30 -64 32 -98 4z m-200 -310 c15 -5 40 -23 55 -40 26 -28 29 -29 130 -29
l102 0 36 35 c66 65 154 54 198 -24 20 -36 64 -198 92 -343 16 -79 6 -112 -36
-129 -39 -14 -92 6 -113 44 -25 46 -71 96 -105 114 -40 21 -222 30 -296 14
-64 -14 -113 -49 -139 -99 -34 -67 -81 -93 -131 -72 -51 21 -53 51 -16 217 56
249 71 283 129 308 39 17 57 18 94 4z"/>
<path d="M5317 25959 c-10 -6 -22 -22 -27 -35 -8 -21 -16 -24 -60 -24 -47 0
-50 -2 -50 -25 0 -33 -40 -74 -80 -81 -30 -6 -30 -7 -30 -75 l0 -68 108 -3
107 -3 5 -275 5 -274 26 -15 c24 -13 29 -13 53 2 l26 17 0 275 0 275 69 0 c46
0 72 4 80 14 8 9 11 51 9 122 l-3 109 -73 3 c-66 3 -74 5 -82 27 -8 22 -38 45
-57 45 -4 0 -16 -5 -26 -11z m213 -184 l0 -95 -215 0 -215 0 0 39 c0 36 4 41
38 58 22 11 45 33 57 55 l20 38 158 0 157 0 0 -95z m-160 -486 l0 -130 -27 3
-28 3 -3 114 c-1 63 0 121 2 128 3 7 17 13 31 13 l25 0 0 -131z"/>
<path d="M7380 25857 c-55 -29 -82 -76 -78 -140 l2 -48 -168 -168 -168 -168
-42 4 c-62 7 -122 -26 -147 -80 -30 -68 -27 -77 29 -77 42 0 50 3 60 24 15 33
48 42 73 20 10 -9 19 -25 19 -34 0 -19 -30 -50 -48 -50 -8 0 -12 -19 -12 -51
l0 -52 36 6 c81 13 127 72 121 154 l-4 52 168 167 168 168 50 -3 c82 -4 145
45 158 124 l6 35 -52 0 c-36 0 -51 -4 -51 -13 0 -8 -9 -22 -20 -32 -26 -24
-68 -13 -76 20 -7 29 1 43 32 55 21 8 24 16 24 60 0 59 -12 63 -80 27z m21
-75 c-35 -34 -38 -50 -16 -91 26 -51 73 -55 117 -11 27 27 68 41 68 23 0 -17
-40 -72 -60 -83 -12 -7 -46 -10 -76 -8 l-54 3 -179 -179 -180 -179 6 -47 c7
-57 -14 -103 -57 -125 -37 -19 -40 -19 -40 4 0 11 14 33 30 49 36 37 38 62 7
98 -34 39 -82 38 -117 -4 -42 -50 -76 -37 -44 17 26 44 72 65 125 58 l44 -6
181 180 181 181 -5 46 c-6 56 17 104 62 126 29 14 31 14 34 -3 2 -10 -11 -32
-27 -49z"/>
<path d="M10789 25810 c-23 -69 -23 -72 -5 -85 17 -13 18 -28 11 -318 -7 -302
-7 -305 14 -326 28 -28 55 -26 81 6 20 25 21 35 16 172 -19 492 -19 444 5 463
l21 18 -25 68 c-23 64 -26 67 -59 70 -34 3 -35 3 -59 -68z m94 -16 c15 -40 15
-43 -4 -59 -17 -16 -19 -32 -19 -162 0 -120 -2 -143 -15 -143 -13 0 -15 23
-15 150 0 128 -2 152 -16 157 -17 6 -14 30 12 92 12 30 16 33 28 20 7 -8 20
-33 29 -55z m-5 -516 l3 -128 -31 0 -30 0 0 131 0 130 28 -3 27 -3 3 -127z"/>
<path d="M9182 25830 c-50 -31 -73 -76 -70 -137 l3 -52 -192 -194 c-124 -124
-193 -200 -193 -214 0 -11 8 -27 18 -36 41 -37 59 -25 254 170 l188 188 59 0
c44 0 67 5 87 21 42 31 66 68 67 105 2 33 1 34 -40 37 -38 3 -43 0 -57 -26 -8
-16 -23 -32 -32 -36 -22 -9 -64 20 -64 44 0 22 25 50 46 50 10 0 14 13 14 50
0 48 -1 50 -27 50 -16 0 -43 -9 -61 -20z m58 -34 c0 -15 -7 -27 -18 -31 -19
-5 -42 -44 -42 -69 0 -7 9 -25 21 -40 31 -39 89 -37 122 5 16 21 30 30 40 26
22 -8 11 -39 -25 -73 -26 -26 -37 -29 -94 -29 l-64 0 -194 -194 c-168 -168
-197 -193 -210 -182 -9 8 -16 19 -16 25 0 6 87 98 194 205 l194 194 -5 58 c-6
56 -5 59 30 94 41 41 67 46 67 11z"/>
<path d="M12440 25781 c0 -45 3 -53 24 -61 35 -13 43 -47 18 -72 -27 -27 -69
-18 -78 17 -6 22 -11 25 -56 25 l-51 0 6 -36 c13 -80 71 -126 155 -122 49 2
55 -1 92 -37 l40 -39 -110 -111 c-83 -83 -110 -117 -110 -136 0 -30 28 -59 56
-59 11 0 67 48 131 112 l113 112 113 -112 c67 -66 122 -112 134 -112 26 0 49
20 58 48 6 20 -10 40 -109 141 -64 64 -116 121 -116 127 0 5 26 35 58 67 41
41 65 57 85 57 23 0 31 9 57 60 35 70 36 81 11 104 -19 17 -22 16 -88 -16 -59
-29 -68 -36 -65 -58 1 -20 -13 -40 -63 -90 l-65 -64 -44 43 c-43 42 -44 45
-39 95 4 42 1 57 -19 85 -30 44 -65 69 -105 77 l-33 7 0 -52z m101 -29 c29
-33 31 -39 26 -91 l-6 -56 50 -51 50 -50 -21 -19 c-20 -18 -21 -18 -71 31 -50
49 -50 49 -108 46 -53 -3 -62 -1 -89 25 -17 15 -33 38 -37 51 -5 19 -3 22 19
22 14 0 26 -4 26 -10 0 -15 42 -50 61 -50 34 0 68 23 78 52 13 37 6 57 -32 89
-19 17 -28 32 -24 42 9 23 42 10 78 -31z m409 -32 c0 -5 -10 -30 -22 -55 -18
-36 -27 -45 -48 -45 -19 0 -50 -25 -125 -100 -66 -66 -103 -96 -109 -90 -7 7
24 45 93 114 73 73 102 109 99 122 -3 14 7 25 37 41 43 24 75 29 75 13z m-112
-393 c83 -83 111 -118 106 -130 -3 -9 -13 -17 -22 -17 -18 0 -232 208 -232
225 0 12 20 35 30 35 3 0 56 -51 118 -113z m-204 80 c9 -14 -4 -32 -81 -109
-92 -91 -92 -92 -113 -73 l-21 19 93 93 c51 51 97 92 102 90 5 -2 14 -11 20
-20z"/>
<path d="M1440 25733 c0 -98 10 -122 61 -148 l30 -16 -1 -217 c0 -119 -1 -223
0 -230 0 -7 5 -10 10 -7 6 4 10 93 10 236 0 202 2 229 16 229 8 0 29 13 45 29
28 28 29 33 29 120 0 74 -3 91 -15 91 -12 0 -15 -16 -15 -85 0 -72 -3 -88 -20
-105 -11 -11 -24 -20 -30 -20 -6 0 -10 42 -10 106 0 74 -3 105 -11 102 -8 -3
-11 -36 -10 -100 2 -103 -6 -123 -39 -93 -16 14 -20 34 -22 103 -2 57 -7 87
-15 90 -10 3 -13 -19 -13 -85z"/>
<path d="M1802 25471 c2 -224 7 -352 13 -354 6 -1 11 52 13 141 1 88 6 142 13
142 5 0 21 11 34 25 23 22 25 32 25 112 0 150 -37 272 -84 281 -15 3 -16 -25
-14 -347z"/>
<path d="M8932 24026 l-37 -34 -3 -104 -4 -103 -38 -40 c-50 -52 -73 -106 -72
-175 1 -166 153 -276 316 -228 59 18 138 99 155 161 31 108 -13 216 -109 275
-53 32 -58 33 -137 30 l-83 -4 0 82 c0 73 3 86 25 112 31 38 65 46 109 28 41
-17 55 -40 63 -106 8 -65 23 -64 23 0 0 91 -45 140 -130 140 -32 0 -48 -7 -78
-34z m195 -272 c123 -71 139 -245 30 -341 -122 -107 -304 -48 -348 112 -19 67
3 138 60 195 74 74 168 86 258 34z"/>
<path d="M5262 24016 l-37 -34 -3 -101 c-3 -82 -7 -101 -19 -101 -8 0 -30 -7
-48 -16 -54 -25 -65 -62 -65 -214 0 -214 8 -220 266 -220 l176 0 34 34 34 34
0 154 c0 219 -9 228 -220 228 l-130 0 0 89 c0 81 2 92 25 119 68 81 175 24
175 -93 0 -19 5 -35 10 -35 6 0 10 27 10 61 0 56 -3 64 -34 95 -30 30 -40 34
-85 34 -44 0 -56 -5 -89 -34z m285 -290 l28 -24 0 -145 c0 -140 -1 -146 -24
-171 l-24 -26 -179 0 c-177 0 -179 0 -203 25 -24 23 -25 28 -25 167 1 201 -3
197 232 198 162 0 168 -1 195 -24z"/>
<path d="M7125 23986 c-46 -20 -67 -60 -73 -137 -4 -63 -8 -71 -46 -111 -102
-107 -84 -283 37 -365 160 -108 377 5 377 196 0 68 -33 145 -79 183 -27 24
-31 33 -31 80 -1 126 -86 197 -185 154z m104 -30 c34 -18 51 -54 51 -109 l0
-42 -100 0 -100 0 0 45 c1 95 71 146 149 106z m52 -197 c76 -39 114 -112 107
-209 -5 -75 -40 -127 -109 -165 -44 -24 -59 -27 -115 -23 -117 7 -194 91 -194
210 0 165 163 263 311 187z"/>
<path d="M3464 23980 c-11 -4 -33 -22 -47 -40 -23 -27 -27 -41 -27 -96 0 -58
-2 -64 -20 -64 -29 0 -76 -26 -94 -52 -13 -18 -16 -53 -16 -176 l0 -154 34
-34 34 -34 176 0 c260 0 266 5 266 227 0 167 -11 195 -85 215 l-45 12 0 56 c0
109 -85 177 -176 140z m117 -49 c26 -26 29 -36 29 -90 l0 -61 -95 0 -95 0 0
64 c0 59 2 66 31 90 43 36 91 35 130 -3z m133 -206 c26 -24 26 -25 26 -170 0
-142 -1 -147 -25 -170 -24 -25 -27 -25 -199 -25 -170 0 -176 1 -203 24 l-28
24 0 147 0 147 28 24 c27 23 33 24 201 24 170 0 174 0 200 -25z"/>
<path d="M10822 23919 c-12 -5 -24 -19 -28 -33 -3 -14 -14 -28 -24 -31 -41
-13 -99 -66 -120 -109 -17 -37 -22 -63 -21 -129 1 -110 -7 -139 -47 -156 -18
-8 -32 -18 -32 -23 0 -4 49 -8 108 -8 105 0 109 -1 120 -24 23 -50 120 -48
137 3 6 20 14 21 116 21 110 0 135 9 79 29 -40 14 -50 44 -49 152 1 73 -3 97
-21 135 -21 43 -79 96 -119 109 -9 3 -21 18 -27 33 -12 32 -38 43 -72 31z
m129 -114 c49 -32 80 -93 85 -164 2 -31 5 -86 8 -123 l4 -67 -202 0 -202 0 3
92 c5 143 18 192 64 238 21 21 53 43 71 48 51 16 126 5 169 -24z"/>
<path d="M12659 23917 c-13 -7 -25 -22 -27 -34 -2 -12 -15 -26 -34 -34 -91
-38 -130 -106 -135 -239 -5 -127 -8 -136 -43 -148 -58 -21 -33 -32 72 -32 101
0 102 0 127 -31 37 -43 85 -44 121 -1 l26 32 107 0 c103 0 139 12 82 26 -44
11 -55 39 -55 144 0 70 -5 105 -19 135 -19 43 -92 115 -116 115 -8 0 -21 13
-30 30 -21 40 -45 52 -76 37z m89 -93 c39 -16 86 -56 105 -89 6 -11 14 -72 17
-135 4 -63 9 -122 11 -130 3 -13 -24 -15 -201 -15 -178 0 -204 2 -201 15 3 8
8 65 11 125 8 145 37 198 127 230 50 19 86 18 131 -1z"/>
<path d="M1463 23889 c-49 -31 -73 -77 -73 -139 0 -90 61 -157 148 -163 28 -2
50 -11 69 -29 15 -14 39 -28 53 -30 19 -2 26 -10 28 -30 3 -22 9 -28 27 -28
18 0 24 -6 27 -27 2 -22 9 -29 31 -31 21 -3 27 -9 27 -28 0 -24 1 -25 73 -22
l72 3 3 59 3 58 -118 119 c-108 110 -118 123 -120 161 -4 52 -29 96 -73 125
-44 31 -131 32 -177 2z m168 -30 c33 -23 59 -76 59 -121 0 -29 14 -47 115
-148 l116 -115 -3 -45 -3 -45 -40 0 c-36 0 -40 3 -43 28 -3 23 -8 27 -33 27
-26 0 -29 3 -29 30 0 27 -3 30 -30 30 -27 0 -30 3 -30 30 0 27 -3 30 -32 30
-21 0 -41 9 -60 27 -21 20 -39 27 -72 29 -58 2 -100 33 -122 89 -16 43 -16 47
0 90 17 44 52 78 91 88 31 8 87 -3 116 -24z"/>
<path d="M3304 22096 c-17 -8 -39 -24 -48 -37 -19 -28 -21 -88 -2 -114 12 -17
18 -14 95 44 44 34 81 66 81 71 0 13 -39 37 -70 44 -14 3 -39 -1 -56 -8z"/>
<path d="M3640 22092 c-19 -9 -36 -24 -37 -32 -2 -9 30 -39 75 -72 77 -57 77
-57 95 -37 35 43 12 115 -47 143 -42 20 -43 20 -86 -2z"/>
<path d="M5240 22099 c0 -6 9 -13 20 -16 15 -4 20 -14 20 -37 0 -26 -5 -34
-29 -43 -25 -9 -32 -8 -47 8 -22 25 -36 24 -62 -4 -27 -28 -27 -39 -3 -61 18
-16 18 -18 0 -53 -65 -127 1 -290 136 -336 60 -21 87 -21 154 -1 139 41 208
207 142 337 -18 35 -18 37 0 53 25 22 24 36 -4 62 -29 27 -39 27 -61 3 -15
-16 -22 -17 -47 -8 -24 9 -29 17 -29 43 0 24 5 33 21 37 12 3 18 10 14 16 -9
15 -225 15 -225 0z m223 -132 c57 -34 98 -100 105 -167 3 -37 -1 -61 -21 -103
-63 -138 -235 -170 -342 -62 -65 65 -82 152 -44 235 27 60 45 79 104 107 65
31 133 28 198 -10z"/>
<path d="M3475 22060 c-3 -5 1 -10 9 -10 29 0 17 -18 -16 -25 -106 -23 -182
-107 -195 -213 -7 -63 10 -122 53 -177 l35 -46 -31 -37 c-42 -51 -21 -68 22
-18 l33 37 60 -15 c60 -16 100 -14 163 7 31 11 34 9 63 -26 52 -63 70 -42 19
23 l-29 37 25 24 c108 100 86 287 -42 369 -25 16 -64 32 -87 35 -36 7 -39 9
-24 20 9 7 17 15 17 19 0 10 -68 7 -75 -4z m157 -96 c114 -80 128 -227 29
-325 -78 -79 -175 -88 -268 -26 -105 72 -124 218 -40 314 47 53 99 74 174 70
50 -2 71 -9 105 -33z"/>
<path d="M1806 21993 c-13 -98 -47 -115 -239 -122 -132 -5 -150 -8 -163 -25
-32 -45 -4 -118 50 -128 13 -2 29 -28 52 -82 37 -88 64 -122 111 -142 35 -15
79 -18 87 -6 2 4 -16 54 -40 111 -24 56 -44 107 -44 112 0 12 46 11 94 -2 56
-16 84 -48 92 -108 6 -45 9 -51 30 -51 29 0 62 42 69 89 12 70 15 76 45 93 26
15 30 23 30 61 0 43 -21 77 -47 77 -13 0 -23 24 -23 56 0 30 -26 96 -43 106
-7 4 -22 8 -33 8 -18 0 -22 -8 -28 -47z m75 -61 c15 -74 8 -277 -12 -317 -18
-37 -32 -35 -40 7 -11 66 -42 97 -117 117 -33 9 -42 17 -47 41 -8 36 9 70 36
70 58 0 129 68 129 122 0 64 35 36 51 -40z m-235 -132 l0 -50 -101 0 c-110 0
-125 6 -125 52 0 38 24 47 136 47 l90 1 0 -50z m-39 -137 c14 -32 34 -80 44
-107 l20 -48 -28 7 c-15 3 -39 16 -52 28 -22 21 -65 106 -77 154 -6 21 -3 23
30 23 35 0 38 -3 63 -57z"/>
<path d="M7120 22021 c-110 -36 -180 -128 -180 -236 0 -89 53 -176 134 -217
57 -30 156 -30 211 -1 88 47 135 123 135 218 0 95 -48 173 -134 217 -43 22
-128 32 -166 19z m56 -38 c13 -17 13 -17 14 0 1 59 160 -38 189 -116 14 -36
14 -77 1 -77 -6 0 -5 -7 2 -19 32 -51 -55 -168 -143 -191 -33 -9 -44 -9 -50 2
-8 11 -10 11 -18 0 -13 -21 -84 2 -128 41 -52 46 -97 157 -63 157 6 0 6 7 -2
19 -28 45 50 158 128 186 51 18 54 18 70 -2z"/>
<path d="M8960 22021 c-115 -35 -189 -142 -177 -255 11 -105 75 -183 176 -212
201 -59 376 161 275 346 -53 97 -175 151 -274 121z m114 -167 c12 -5 16 -21
16 -69 0 -68 -6 -75 -73 -75 -55 0 -67 15 -67 80 0 47 3 59 18 63 27 7 89 8
106 1z"/>
<path d="M12605 21917 c-308 -81 -335 -90 -335 -107 0 -27 34 -40 106 -40 l74
0 0 -83 c0 -51 5 -88 12 -95 17 -17 48 -15 70 5 17 15 18 14 18 -25 0 -55 8
-72 34 -72 16 0 61 55 195 239 95 132 174 243 175 248 3 19 -55 7 -349 -70z
m268 1 c-5 -7 -69 -95 -142 -196 -73 -100 -137 -185 -142 -188 -6 -3 -8 46 -7
121 l3 126 145 79 c80 43 147 76 149 74 2 -2 -1 -9 -6 -16z"/>
<path d="M10820 21757 c-55 -28 -64 -94 -18 -137 32 -30 74 -26 110 10 25 26
29 36 24 63 -12 58 -68 89 -116 64z"/>
<path d="M3292 20324 c-24 -17 -30 -62 -10 -82 7 -7 26 -12 43 -12 28 0 65
-25 65 -43 0 -4 -22 -7 -50 -7 -34 0 -50 -4 -50 -13 0 -7 47 -59 105 -117
l105 -105 0 -95 0 -96 -40 -23 c-68 -38 -54 -51 55 -51 109 0 123 13 55 52
l-40 23 0 95 0 95 105 105 c58 58 105 110 105 117 0 10 -37 13 -159 13 l-160
0 -25 33 c-15 20 -26 47 -26 65 0 27 -28 62 -50 62 -3 0 -16 -7 -28 -16z"/>
<path d="M1420 20123 c-47 -21 -91 -42 -98 -46 -14 -10 -18 -302 -3 -311 5 -3
28 1 52 10 70 25 179 30 217 10 18 -9 32 -22 32 -30 0 -20 34 -46 62 -46 25 0
58 27 58 48 0 6 14 19 32 28 38 20 147 15 217 -10 24 -9 47 -13 52 -10 15 9
11 300 -3 311 -7 6 -53 27 -102 48 -103 44 -169 45 -224 6 l-32 -22 -32 22
c-21 16 -50 24 -87 26 -47 3 -69 -2 -141 -34z m200 -8 c16 -8 34 -24 40 -34
11 -22 14 -255 3 -249 -92 47 -132 47 -243 -2 -37 -16 -71 -30 -74 -30 -3 0
-6 58 -6 129 l0 129 83 35 c90 40 150 46 197 22z m316 -21 l84 -36 0 -129 c0
-71 -3 -129 -6 -129 -3 0 -37 14 -74 30 -111 49 -151 49 -242 2 -12 -6 -9 227
2 248 32 59 119 64 236 14z"/>
<path d="M8700 20055 l-105 -105 105 -105 105 -105 240 2 240 3 3 208 2 207
-242 0 -243 0 -105 -105z m558 -102 l2 -183 -222 0 -223 0 -90 90 -90 90 95
95 95 95 215 -2 215 -3 3 -182z"/>
<path d="M12416 20143 c-3 -3 -6 -86 -6 -184 l0 -178 26 -20 c25 -20 39 -21
260 -21 201 0 234 2 234 15 0 13 -33 15 -233 15 -168 0 -236 3 -245 12 -8 8
-12 64 -12 184 0 157 -5 196 -24 177z"/>
<path d="M12767 20144 c-15 -15 8 -24 61 -24 l57 0 -67 -67 c-66 -66 -67 -66
-92 -50 -14 10 -30 17 -36 17 -22 0 -181 -153 -170 -164 6 -6 37 15 90 63 79
72 81 73 105 57 13 -9 30 -16 37 -16 8 0 43 29 78 65 35 36 68 65 72 65 4 0 8
-25 8 -55 0 -30 5 -55 10 -55 6 0 10 35 10 85 l0 85 -78 0 c-43 0 -82 -3 -85
-6z"/>
<path d="M10657 20112 c-47 -52 -65 -172 -35 -242 64 -151 255 -198 378 -92
97 82 116 214 46 319 -11 18 -27 33 -33 33 -17 0 -17 0 17 -65 20 -38 30 -71
30 -101 0 -118 -95 -214 -210 -214 -114 0 -197 72 -216 188 -7 44 17 132 42
152 15 13 19 40 6 40 -5 0 -16 -8 -25 -18z"/>
<path d="M5086 20110 c-42 -13 -95 -68 -107 -113 -13 -47 -4 -91 26 -138 42
-65 62 -69 344 -69 282 0 300 3 346 64 61 80 35 196 -55 243 -42 22 -51 23
-284 22 -133 0 -254 -5 -270 -9z m540 -36 c68 -33 95 -125 54 -191 -36 -60
-52 -63 -332 -63 -230 0 -256 2 -284 19 -35 21 -64 75 -64 118 0 38 33 89 72
113 31 18 51 20 276 20 203 0 250 -3 278 -16z"/>
<path d="M5508 20044 c-35 -19 -48 -43 -48 -92 0 -76 74 -127 143 -99 45 19
67 52 67 102 -1 84 -86 131 -162 89z m117 -29 c35 -34 34 -93 0 -125 -56 -53
-145 -15 -145 62 0 52 35 88 85 88 25 0 44 -8 60 -25z"/>
<path d="M6880 20097 c-50 -26 -90 -90 -90 -141 1 -47 33 -110 71 -137 34 -24
35 -24 309 -24 275 0 275 0 309 24 47 34 75 100 66 158 -8 56 -61 118 -113
133 -21 5 -143 10 -273 10 -227 0 -237 -1 -279 -23z m568 -27 c39 -24 72 -75
72 -113 0 -43 -29 -97 -64 -118 -28 -17 -54 -19 -284 -19 -280 0 -296 3 -332
63 -39 64 -15 154 51 189 30 16 60 18 279 18 227 0 247 -2 278 -20z"/>
<path d="M6901 20046 c-51 -29 -68 -112 -31 -159 63 -80 190 -37 190 66 0 49
-13 73 -50 92 -35 18 -77 19 -109 1z m114 -31 c57 -56 18 -149 -61 -149 -28 0
-42 7 -60 28 -51 59 -15 146 61 146 25 0 44 -8 60 -25z"/>
<path d="M7112 18557 c-34 -34 -62 -66 -62 -70 0 -18 28 -3 67 35 l43 42 0
-272 c0 -235 2 -272 15 -272 13 0 15 37 15 272 l0 272 43 -42 c40 -39 67 -53
67 -34 0 4 -28 36 -63 70 l-63 62 -62 -63z"/>
<path d="M5340 18309 l0 -272 -50 47 c-76 71 -83 45 -9 -30 35 -35 68 -64 74
-64 19 0 128 117 120 130 -5 8 -23 -4 -56 -36 l-49 -48 -2 269 c-2 204 -6 269
-15 273 -10 3 -13 -55 -13 -269z"/>
<path d="M1647 18374 c-4 -4 -7 -36 -7 -71 0 -63 0 -63 -28 -63 -84 0 -186
-58 -239 -137 -31 -45 -73 -150 -73 -180 0 -35 33 -23 90 31 72 69 127 95 198
96 l52 0 0 -60 c0 -38 4 -60 11 -60 12 0 262 206 267 221 3 6 -238 219 -257
227 -4 1 -10 -1 -14 -4z m145 -143 c49 -40 88 -75 88 -77 0 -1 -46 -42 -102
-90 l-103 -87 -3 53 -3 53 -77 -5 c-89 -5 -140 -28 -208 -90 -32 -29 -44 -36
-44 -24 0 31 49 122 87 161 38 39 123 85 159 85 12 0 36 3 53 6 30 6 31 8 31
61 0 64 -14 69 122 -46z"/>
<path d="M8713 18360 c-17 -10 -37 -28 -42 -39 -7 -12 -11 -102 -11 -236 l0
-217 34 -34 34 -34 259 0 c283 0 287 1 318 60 12 23 15 71 15 230 0 302 14
290 -332 290 -223 0 -246 -2 -275 -20z m551 -36 l26 -27 0 -209 c0 -287 19
-271 -332 -266 l-218 3 -27 28 -28 27 -3 192 c-2 132 0 200 9 220 23 57 31 58
300 58 l246 0 27 -26z"/>
<path d="M8917 18193 c-12 -12 -8 -198 5 -211 9 -9 29 -2 87 29 83 45 117 72
108 86 -9 14 -164 103 -180 103 -8 0 -17 -3 -20 -7z m99 -55 c41 -23 74 -45
74 -50 0 -9 -134 -88 -149 -88 -7 0 -11 32 -11 90 0 50 3 90 6 90 4 0 40 -19
80 -42z"/>
<path d="M10580 18367 c-13 -7 -35 -28 -47 -46 -22 -32 -23 -43 -23 -228 0
-222 7 -253 67 -281 l35 -16 -7 -68 c-6 -56 -4 -69 8 -74 10 -3 58 24 125 70
l110 76 123 0 c206 0 212 9 207 312 l-3 198 -33 32 -32 33 -253 3 c-189 2
-258 -1 -277 -11z m541 -46 l29 -29 0 -197 c0 -219 -6 -245 -61 -264 -18 -6
-83 -11 -146 -11 l-115 0 -95 -65 c-52 -36 -97 -65 -99 -65 -3 0 -2 29 2 64
l7 64 -37 12 c-61 20 -66 41 -66 265 l0 197 29 29 29 29 247 0 247 0 29 -29z"/>
<path d="M10730 18173 c-45 -57 -9 -149 75 -199 l44 -25 44 30 c55 37 79 73
84 125 4 32 0 47 -17 69 -25 31 -73 37 -100 12 -15 -14 -18 -14 -30 0 -21 26
-75 19 -100 -12z m96 -18 c20 -31 27 -31 39 -2 13 29 64 36 82 11 17 -24 16
-68 -2 -105 -19 -35 -93 -91 -109 -82 -67 37 -106 89 -106 142 0 59 65 84 96
36z"/>
<path d="M3238 18354 c-53 -28 -58 -54 -58 -280 l0 -206 34 -34 34 -34 214 0
c234 0 243 2 273 60 20 39 20 100 0 100 -11 0 -15 -11 -15 -40 0 -50 -31 -86
-83 -95 -19 -4 -111 -5 -205 -3 -164 3 -171 4 -196 27 l-26 24 0 209 c0 275
-14 258 215 258 140 0 165 2 165 15 0 22 -312 21 -352 -1z"/>
<path d="M3660 18316 l0 -54 -47 -7 c-110 -16 -218 -96 -267 -198 -52 -106
-27 -141 48 -68 50 49 132 87 208 96 l57 7 3 -53 c2 -29 8 -54 13 -56 11 -3
235 183 235 196 0 13 -218 191 -235 191 -12 0 -15 -12 -15 -54z m145 -78 c35
-29 64 -56 64 -59 1 -6 -166 -149 -174 -149 -3 0 -5 18 -5 40 0 51 -12 56
-103 41 -86 -14 -141 -38 -190 -81 -21 -18 -40 -31 -42 -28 -9 9 38 89 76 127
50 52 126 90 197 99 l57 7 3 48 3 48 25 -20 c14 -11 54 -44 89 -73z"/>
<path d="M5131 18357 c-13 -6 -34 -25 -45 -40 -19 -26 -21 -44 -24 -210 -4
-204 3 -242 49 -281 l31 -26 206 0 c301 0 295 -6 290 307 l-3 193 -31 31 c-24
23 -43 33 -79 37 -38 4 -47 2 -43 -9 3 -8 22 -17 43 -20 24 -4 48 -17 62 -33
22 -26 23 -33 23 -217 0 -219 -6 -241 -68 -259 -23 -7 -104 -10 -215 -8 l-179
3 -29 33 -30 34 3 200 3 200 28 24 c18 15 41 24 63 24 24 0 34 5 34 15 0 19
-54 20 -89 2z"/>
<path d="M6944 18351 c-51 -31 -55 -56 -52 -285 l3 -208 33 -29 32 -29 216 0
216 0 34 34 34 34 0 206 c0 229 -5 253 -61 281 -32 17 -94 17 -94 0 0 -5 20
-13 44 -16 78 -10 81 -20 81 -255 0 -200 0 -203 -24 -231 l-24 -28 -207 0
-207 0 -24 28 c-24 28 -24 31 -24 231 0 235 3 245 81 255 24 3 44 11 44 16 0
19 -69 16 -101 -4z"/>
<path d="M12599 18347 c-42 -16 -82 -45 -110 -81 -95 -121 -45 -313 98 -373
50 -20 149 -17 200 8 166 80 178 325 21 422 -56 35 -151 46 -209 24z m182 -40
c68 -36 103 -93 107 -176 3 -50 0 -77 -13 -102 -76 -150 -274 -167 -370 -31
-27 40 -30 51 -30 121 0 66 4 83 25 115 59 89 187 122 281 73z"/>
<path d="M1589 16617 c-100 -28 -184 -99 -231 -196 -19 -39 -23 -62 -23 -146
0 -121 21 -172 102 -252 68 -67 140 -96 244 -96 278 -2 444 312 288 547 -78
117 -247 181 -380 143z m223 -50 c68 -30 126 -87 159 -153 20 -41 24 -64 24
-139 0 -79 -4 -97 -27 -142 -102 -194 -346 -239 -511 -94 -20 18 -51 61 -68
96 -26 54 -31 75 -31 138 0 241 236 394 454 294z"/>
<path d="M3444 16620 c-101 -20 -200 -96 -245 -186 -19 -40 -24 -64 -24 -129
0 -79 10 -111 55 -182 12 -19 12 -32 -3 -94 -12 -49 -14 -76 -7 -83 6 -6 37 1
95 23 80 30 88 31 145 21 147 -27 306 46 375 171 37 68 46 177 21 243 -61 160
-235 251 -412 216z m217 -52 c120 -55 179 -142 179 -262 0 -86 -21 -137 -80
-196 -78 -78 -205 -115 -309 -90 -47 11 -56 10 -121 -15 -39 -15 -73 -25 -76
-22 -3 3 1 33 8 66 10 49 10 66 0 79 -124 171 -55 381 151 454 72 26 174 20
248 -14z"/>
<path d="M5252 16615 c-105 -30 -176 -86 -221 -177 -26 -51 -31 -73 -31 -134
0 -64 4 -81 35 -140 l36 -68 -17 -73 c-10 -40 -14 -76 -10 -80 4 -4 42 6 84
21 42 16 89 29 105 28 150 -7 194 -4 249 17 71 28 151 98 186 165 37 70 38
187 3 258 -71 146 -259 228 -419 183z m240 -48 c69 -32 125 -87 156 -155 21
-46 24 -65 20 -121 -6 -83 -32 -135 -98 -195 -37 -33 -70 -51 -117 -66 -74
-23 -111 -25 -181 -9 -44 9 -56 7 -113 -15 -90 -37 -90 -37 -73 38 l15 63 -30
49 c-129 208 38 455 296 440 49 -3 90 -12 125 -29z"/>
<path d="M7095 16617 c-71 -19 -124 -49 -172 -99 -102 -105 -119 -252 -43
-372 l28 -44 -18 -73 c-27 -103 -25 -104 93 -59 73 29 81 30 141 19 73 -12
155 -1 222 31 209 102 251 363 83 514 -86 77 -224 111 -334 83z m185 -33 c259
-77 307 -385 81 -521 -75 -45 -148 -59 -233 -45 -63 11 -72 10 -138 -14 -39
-15 -73 -24 -76 -22 -2 3 2 33 10 68 15 62 14 63 -9 95 -83 108 -69 262 34
358 26 25 62 52 79 61 72 37 169 45 252 20z"/>
<path d="M11000 16485 l0 -25 -150 0 c-224 0 -253 -17 -259 -157 -2 -69 0 -85
10 -81 10 3 16 29 19 81 4 62 9 81 28 99 22 22 29 23 185 23 l162 0 3 -27 c2
-16 7 -28 11 -28 14 0 91 62 91 73 0 13 -72 67 -89 67 -6 0 -11 -11 -11 -25z"/>
<path d="M12848 16433 c-3 -27 -5 -28 -75 -33 -57 -4 -76 -10 -97 -29 l-25
-24 -31 27 c-28 23 -40 26 -112 26 -59 0 -79 -3 -76 -12 3 -9 31 -14 80 -16
65 -2 78 -6 99 -28 33 -35 31 -86 -4 -122 -24 -23 -37 -27 -102 -30 -41 -2
-75 -8 -75 -13 0 -5 36 -9 79 -9 71 0 83 3 111 26 l31 27 25 -24 c21 -19 40
-25 97 -29 70 -5 72 -6 75 -32 4 -37 19 -35 67 7 l40 35 -40 35 c-48 42 -63
44 -67 8 -3 -27 -5 -28 -65 -28 -55 0 -66 4 -90 27 -34 35 -35 88 -2 124 19
21 31 24 91 24 66 0 68 -1 68 -25 0 -14 5 -25 11 -25 14 0 89 59 89 70 0 9
-79 70 -91 70 -4 0 -9 -12 -11 -27z"/>
<path d="M11076 16341 c-3 -5 -5 -39 -5 -76 1 -60 -2 -70 -25 -94 -26 -26 -27
-26 -184 -26 l-157 0 -3 28 c-2 15 -9 27 -16 27 -14 0 -96 -59 -96 -69 0 -10
85 -71 99 -71 6 0 11 14 11 30 l0 30 166 0 166 0 34 34 c33 33 34 36 34 115 0
73 -8 98 -24 72z"/>
<path d="M8868 14609 c-16 -9 -18 -28 -18 -159 0 -137 2 -150 19 -160 11 -5
78 -10 150 -10 104 0 133 3 145 16 13 12 16 41 16 154 0 113 -3 142 -16 154
-12 13 -40 16 -147 16 -73 0 -140 -5 -149 -11z m277 -159 l0 -135 -130 0 -130
0 -3 124 c-1 69 0 131 2 138 4 11 34 13 133 11 l128 -3 0 -135z"/>
<path d="M10660 14551 c-127 -74 -142 -94 -93 -128 76 -53 215 -124 235 -121
21 3 23 9 26 66 2 34 5 62 7 62 2 0 54 -29 115 -65 166 -97 170 -95 170 88 0
130 -8 167 -37 167 -8 0 -66 -29 -128 -65 -61 -36 -115 -65 -118 -65 -4 0 -7
24 -7 53 0 54 -12 78 -39 76 -9 0 -68 -31 -131 -68z m140 -91 c0 -82 -4 -130
-10 -130 -15 0 -220 121 -220 129 0 7 209 130 223 131 4 0 7 -58 7 -130z m290
0 c0 -97 -3 -130 -12 -130 -7 0 -62 29 -122 64 -97 57 -107 65 -90 76 109 67
201 119 212 119 9 1 12 -31 12 -129z"/>
<path d="M12414 14607 c-2 -7 -3 -78 -2 -157 3 -141 4 -145 25 -148 13 -2 67
23 135 62 l113 66 3 -42 c4 -73 10 -88 36 -88 12 0 76 30 140 68 154 88 154
92 -4 184 -63 37 -122 67 -130 68 -28 0 -40 -23 -40 -77 0 -29 -2 -53 -5 -53
-3 0 -56 29 -118 65 -113 66 -143 76 -153 52z m146 -79 c60 -35 110 -66 110
-69 0 -8 -213 -129 -228 -129 -9 0 -12 34 -12 130 0 84 4 130 10 130 6 0 60
-28 120 -62z m288 -2 c56 -32 102 -62 102 -66 0 -10 -184 -120 -212 -128 -17
-4 -18 5 -18 128 0 100 3 131 13 128 6 -2 58 -29 115 -62z"/>
<path d="M1517 14603 c-12 -11 -8 -118 5 -131 18 -18 103 -15 122 4 10 9 16
33 16 59 0 71 -4 75 -74 75 -35 0 -66 -3 -69 -7z"/>
<path d="M1701 14591 c-16 -30 -13 -97 5 -115 17 -17 99 -22 122 -7 9 5 12 27
10 72 l-3 64 -62 3 c-53 3 -63 0 -72 -17z"/>
<path d="M3434 14591 c-95 -58 -112 -175 -35 -252 71 -72 170 -71 235 2 74 81
52 204 -45 254 -40 21 -117 19 -155 -4z m129 -15 c55 -23 87 -69 87 -128 0
-45 -4 -54 -38 -88 -48 -49 -96 -59 -149 -34 -114 57 -106 218 13 254 41 12
51 12 87 -4z"/>
<path d="M5222 14598 c-13 -13 -18 -262 -6 -292 11 -28 46 -17 159 48 112 65
132 83 122 108 -6 17 -227 148 -249 148 -8 0 -19 -5 -26 -12z m142 -79 c58
-34 106 -65 106 -69 0 -9 -206 -130 -221 -130 -5 0 -9 59 -9 130 0 72 4 130 9
130 5 0 57 -28 115 -61z"/>
<path d="M7002 14598 c-8 -8 -12 -56 -12 -149 0 -131 1 -139 22 -153 29 -20
87 -20 116 0 21 14 22 22 22 153 0 93 -4 141 -12 149 -7 7 -37 12 -68 12 -31
0 -61 -5 -68 -12z m113 -148 l0 -135 -45 0 -45 0 -3 124 c-1 69 0 131 3 139 3
9 18 12 47 10 l43 -3 0 -135z"/>
<path d="M7232 14598 c-8 -8 -12 -56 -12 -149 0 -131 1 -139 22 -153 29 -20
87 -20 116 0 21 14 22 22 22 153 0 93 -4 141 -12 149 -7 7 -37 12 -68 12 -31
0 -61 -5 -68 -12z m113 -148 l0 -135 -45 0 -45 0 -3 124 c-1 69 0 131 3 139 3
9 18 12 47 10 l43 -3 0 -135z"/>
<path d="M1522 14428 c-7 -7 -12 -38 -12 -70 0 -66 12 -78 79 -78 53 0 71 20
71 80 0 31 -6 54 -16 64 -19 19 -104 22 -122 4z"/>
<path d="M1705 14423 c-21 -21 -16 -120 6 -134 19 -12 86 -11 110 1 16 9 19
22 19 74 0 72 -4 76 -75 76 -27 0 -50 -6 -60 -17z"/>
<path d="M5277 12866 c-137 -37 -217 -204 -158 -331 39 -83 133 -145 220 -145
123 0 240 109 241 223 0 42 -17 50 -25 12 -3 -14 -8 -37 -11 -52 -10 -49 -54
-101 -107 -128 -91 -45 -189 -26 -255 50 -42 47 -52 74 -52 136 0 112 70 193
183 214 21 4 36 12 34 18 -5 16 -18 17 -70 3z"/>
<path d="M8936 12802 c-3 -5 33 -46 80 -93 46 -46 84 -88 84 -94 0 -6 -38 -48
-85 -95 -56 -56 -81 -88 -75 -94 7 -7 42 21 105 84 52 52 95 99 95 105 0 11
-181 195 -192 195 -4 0 -9 -4 -12 -8z"/>
<path d="M1332 12778 c-8 -8 -12 -56 -12 -149 0 -112 3 -141 16 -153 8 -9 18
-16 22 -16 4 0 61 32 127 70 l120 69 5 -61 c7 -91 17 -92 142 -19 58 33 108
61 111 61 4 0 7 -17 7 -38 0 -68 46 -101 101 -72 17 10 19 23 19 153 0 157 -3
167 -56 167 -45 0 -64 -23 -64 -76 0 -24 -2 -44 -5 -44 -3 0 -53 28 -111 62
-126 73 -137 72 -142 -16 -2 -31 -7 -56 -11 -56 -5 0 -60 29 -122 65 -63 36
-119 65 -124 65 -6 0 -16 -5 -23 -12z m139 -80 c60 -35 109 -67 109 -73 -1 -8
-187 -121 -221 -133 -5 -2 -9 56 -9 132 0 75 3 136 6 136 4 0 55 -28 115 -62z
m283 1 c58 -33 108 -64 111 -69 5 -8 -107 -79 -194 -124 l-31 -17 0 136 c0 74
2 135 4 135 2 0 52 -27 110 -61z m206 -75 l0 -135 -27 3 -28 3 -3 119 c-1 66
0 126 2 133 3 7 17 13 31 13 l25 0 0 -136z"/>
<path d="M3216 12774 c-13 -12 -16 -40 -16 -142 0 -141 10 -172 56 -172 49 0
64 16 64 70 0 28 4 50 9 50 5 0 56 -27 113 -60 56 -33 106 -60 110 -60 22 0
38 36 38 85 l0 53 122 -69 c67 -38 125 -69 129 -69 24 0 29 36 27 170 -2 117
-6 145 -19 153 -11 7 -43 -7 -131 -57 -63 -36 -118 -66 -122 -66 -3 0 -6 21
-6 46 0 51 -14 84 -35 84 -7 0 -60 -27 -117 -60 -56 -33 -106 -60 -110 -60 -5
0 -8 22 -8 48 0 26 -5 53 -12 60 -17 17 -74 15 -92 -4z m74 -150 l0 -135 -27
3 -28 3 -3 119 c-1 66 0 126 2 133 3 7 17 13 31 13 l25 0 0 -136z m270 1 c0
-74 -2 -135 -5 -135 -17 0 -235 134 -228 140 13 13 218 130 226 130 4 0 7 -61
7 -135z m280 -1 l0 -136 -42 25 c-174 100 -189 110 -180 119 11 11 204 126
215 127 4 1 7 -60 7 -135z"/>
<path d="M9006 11073 c-3 -3 -6 -18 -6 -32 0 -20 -7 -29 -30 -38 -18 -7 -36
-25 -46 -46 -24 -51 -12 -99 37 -148 l40 -40 -3 -97 -3 -97 -28 28 c-30 29
-47 34 -47 14 0 -15 37 -51 62 -60 9 -3 18 -18 20 -33 4 -40 28 -43 28 -5 0
24 6 34 24 41 34 12 66 58 66 92 0 42 -27 95 -61 119 -28 20 -29 22 -29 115 0
77 3 94 15 94 8 0 20 -9 27 -20 7 -11 19 -20 26 -20 25 0 7 35 -31 59 -25 16
-37 32 -37 47 0 24 -13 38 -24 27z"/>
<path d="M7198 11016 c-63 -17 -113 -57 -146 -117 -26 -48 -28 -49 -74 -49
-36 0 -48 -4 -48 -15 0 -11 12 -15 45 -15 l45 0 0 -40 0 -40 -45 0 c-25 0 -45
-4 -45 -10 0 -5 20 -10 45 -10 41 0 48 -3 63 -31 28 -52 73 -99 116 -122 49
-26 172 -31 199 -8 23 19 11 32 -19 21 -66 -25 -163 -4 -217 48 -33 31 -59 76
-50 86 4 3 39 6 80 6 100 0 93 19 -9 22 l-83 3 -3 37 -3 37 82 3 c53 2 84 7
86 15 3 9 -19 13 -76 15 l-80 3 16 34 c36 74 141 121 228 103 52 -10 81 -1 49
16 -34 17 -108 21 -156 8z"/>
<path d="M3472 11013 c-36 -7 -99 -73 -111 -118 -21 -82 18 -159 99 -194 48
-21 51 -24 48 -54 -3 -29 -6 -32 -40 -35 -24 -2 -38 -8 -38 -17 0 -9 14 -15
38 -17 35 -3 37 -5 40 -40 2 -21 7 -38 12 -38 5 0 10 17 12 38 3 35 5 37 41
40 49 4 44 26 -6 30 -35 3 -37 5 -37 37 0 31 5 37 37 50 75 32 113 86 113 163
0 104 -96 176 -208 155z m101 -34 c40 -21 67 -52 78 -91 14 -52 -2 -98 -47
-138 -69 -60 -176 -32 -210 55 -17 47 -14 82 12 123 34 52 116 77 167 51z"/>
<path d="M5348 11004 c-37 -20 -59 -65 -65 -136 l-6 -58 -49 0 c-65 0 -61 -24
5 -28 l47 -3 0 -88 c0 -109 -7 -120 -83 -128 -114 -12 -53 -23 123 -23 113 0
180 4 180 10 0 6 -40 10 -101 10 l-101 0 6 31 c3 17 6 67 6 110 l0 79 50 0
c38 0 50 4 50 15 0 11 -12 15 -50 15 l-50 0 0 48 c0 69 26 114 75 130 34 11
46 11 77 -2 43 -16 59 -5 26 18 -28 20 -104 20 -140 0z"/>
<path d="M10670 11011 c0 -5 29 -45 65 -89 l65 -81 -42 -3 c-23 -2 -43 -9 -46
-15 -3 -10 13 -13 57 -13 58 0 61 -1 61 -25 0 -22 -4 -24 -57 -27 -81 -4 -85
-28 -4 -28 l61 0 0 -110 c0 -143 18 -145 22 -2 l3 107 58 3 c75 4 72 25 -4 32
-46 4 -54 8 -54 25 0 17 8 20 58 23 66 3 76 25 14 30 -20 2 -37 6 -37 9 0 4
27 39 60 80 33 40 60 78 60 84 0 23 -28 -1 -94 -82 -38 -46 -71 -85 -75 -86
-3 -1 -37 38 -76 87 -63 80 -95 107 -95 81z"/>
<path d="M1720 10995 c0 -12 13 -15 67 -15 l67 0 -63 -64 -63 -64 -45 20 c-65
29 -125 18 -174 -31 -109 -109 -40 -281 114 -281 115 0 195 137 141 242 l-16
31 58 58 c32 33 62 59 66 59 4 0 8 -30 8 -66 0 -48 3 -65 13 -61 8 2 12 30 12
93 l0 89 -92 3 c-78 2 -93 0 -93 -13z m-42 -149 c90 -47 103 -158 27 -225 -66
-58 -172 -35 -209 44 -54 113 72 238 182 181z"/>
<path d="M12572 9164 c-91 -45 -138 -130 -130 -234 6 -77 46 -144 112 -185 44
-27 58 -30 126 -30 68 0 82 3 126 30 30 19 60 49 79 79 27 44 30 58 30 126 0
68 -3 82 -30 126 -66 106 -202 145 -313 88z m229 -39 c64 -45 91 -104 87 -185
-2 -44 -10 -76 -24 -98 l-20 -32 -153 154 -153 153 44 22 c64 33 161 26 219
-14z m-13 -359 c-22 -14 -54 -22 -98 -24 -81 -4 -140 23 -185 86 -41 59 -47
151 -15 218 l23 46 153 -153 154 -153 -32 -20z"/>
<path d="M1587 9112 c-68 -68 -82 -103 -55 -130 17 -17 58 -15 80 5 17 15 18
12 18 -110 0 -135 7 -157 54 -157 41 0 46 17 46 152 0 70 4 128 9 128 5 0 14
-7 21 -15 18 -22 57 -18 74 7 9 12 16 26 16 31 0 5 -32 42 -72 83 -92 96 -102
96 -191 6z m172 -26 c58 -58 70 -86 38 -86 -6 0 -28 17 -49 37 l-38 37 0 -146
c0 -81 -3 -153 -6 -162 -3 -9 -15 -16 -25 -16 -18 0 -19 10 -19 162 l0 162
-38 -37 c-40 -39 -72 -48 -72 -20 0 22 109 133 130 133 9 0 44 -29 79 -64z"/>
<path d="M3472 9168 c-8 -8 -12 -54 -12 -141 l0 -128 -22 15 c-44 31 -88 14
-88 -34 0 -35 125 -160 161 -160 35 0 159 125 159 161 0 47 -44 64 -88 33
l-22 -15 0 128 c0 139 -5 153 -50 153 -14 0 -31 -5 -38 -12z m58 -180 l0 -162
38 37 c38 37 65 46 77 27 8 -13 -113 -140 -134 -140 -22 0 -145 125 -137 139
13 20 40 11 78 -26 l38 -37 0 162 c0 155 1 162 20 162 19 0 20 -7 20 -162z"/>
<path d="M8934 9105 c-15 -23 -15 -27 0 -50 10 -16 26 -25 41 -25 14 0 25 -3
25 -8 0 -4 -38 -46 -85 -92 -74 -73 -85 -89 -83 -115 2 -22 10 -32 31 -39 26
-9 33 -5 117 79 49 49 91 87 92 84 2 -2 10 -17 18 -34 20 -39 61 -46 84 -13
22 31 23 184 0 216 -14 20 -23 22 -119 22 -100 0 -105 -1 -121 -25z m221 -105
c0 -88 -1 -95 -20 -95 -17 0 -21 8 -25 58 l-5 58 -110 -111 c-60 -60 -115
-110 -122 -110 -33 0 -4 44 92 140 58 58 105 108 105 112 0 5 -24 8 -54 8 -30
0 -58 5 -61 10 -15 24 10 31 103 28 l97 -3 0 -95z"/>
<path d="M10686 9114 c-13 -12 -16 -38 -16 -118 0 -110 6 -126 50 -126 34 0
50 17 50 54 0 30 3 27 93 -62 60 -59 100 -92 114 -92 22 0 53 34 53 58 0 7
-41 55 -91 107 -88 91 -91 95 -62 95 35 0 53 16 53 46 0 44 -24 54 -130 54
-76 0 -102 -4 -114 -16z m214 -34 c0 -18 -7 -20 -62 -20 l-62 0 112 -113 c62
-63 112 -119 112 -126 0 -6 -7 -14 -16 -18 -11 -4 -50 28 -130 108 l-114 114
0 -63 c0 -55 -2 -62 -20 -62 -19 0 -20 7 -20 100 l0 100 100 0 c93 0 100 -1
100 -20z"/>
<path d="M5187 9042 c-87 -88 -87 -98 1 -185 68 -68 103 -82 130 -55 17 17 15
58 -5 80 -16 17 -11 18 113 18 140 0 154 5 154 50 0 45 -14 50 -154 50 -124 0
-129 1 -113 18 20 22 22 63 5 80 -28 28 -62 13 -131 -56z m113 34 c9 -12 4
-23 -31 -60 l-42 -46 162 0 c154 0 161 -1 161 -20 0 -19 -7 -20 -161 -20
l-162 0 42 -45 c22 -24 41 -46 41 -49 0 -2 -7 -9 -15 -16 -12 -10 -26 -1 -80
51 -36 34 -65 70 -65 79 0 14 119 140 133 140 2 0 10 -6 17 -14z"/>
<path d="M7212 9098 c-17 -17 -15 -58 5 -80 16 -17 11 -18 -113 -18 -140 0
-154 -5 -154 -50 0 -45 14 -50 154 -50 124 0 129 -1 113 -18 -20 -22 -22 -63
-5 -80 28 -28 62 -13 131 56 87 88 87 98 -1 185 -68 68 -103 82 -130 55z m104
-70 c35 -33 64 -69 64 -78 0 -9 -29 -45 -65 -79 -54 -52 -68 -61 -80 -51 -18
15 -9 33 35 75 l31 30 -163 5 c-136 4 -163 7 -163 20 0 13 26 15 164 18 l163
3 -42 45 c-34 37 -39 48 -30 60 7 8 15 14 17 14 3 0 34 -28 69 -62z"/>
<path d="M1612 7257 c-34 -34 -62 -66 -62 -70 0 -18 28 -3 67 35 l43 42 0
-167 c0 -142 2 -167 15 -167 13 0 15 25 15 167 l0 167 43 -42 c40 -39 67 -53
67 -34 0 4 -28 36 -63 70 l-63 62 -62 -63z"/>
<path d="M3506 7313 c-3 -3 -6 -80 -6 -171 l0 -165 -50 47 c-76 71 -83 45 -9
-30 35 -35 68 -64 74 -64 19 0 128 117 120 130 -5 8 -23 -4 -56 -36 l-49 -48
0 166 c0 152 -5 189 -24 171z"/>
<path d="M8970 7250 c0 -6 28 -10 65 -10 36 0 65 -3 65 -8 0 -4 -52 -59 -115
-122 -76 -76 -111 -118 -105 -124 7 -7 50 29 130 109 l120 120 0 -68 c0 -53 3
-67 15 -67 12 0 15 17 15 90 l0 90 -95 0 c-57 0 -95 -4 -95 -10z"/>
<path d="M10700 7170 c0 -73 3 -90 15 -90 12 0 15 14 15 67 l0 68 118 -118
c64 -64 121 -117 125 -117 23 0 -5 38 -103 135 -60 60 -110 113 -110 117 0 5
29 8 65 8 37 0 65 4 65 10 0 6 -38 10 -95 10 l-95 0 0 -90z"/>
<path d="M5200 7185 l-64 -65 64 -65 c42 -43 68 -61 74 -55 7 7 -4 25 -32 53
-23 23 -42 46 -42 50 0 4 75 7 166 7 128 0 165 3 162 13 -3 9 -50 13 -167 17
l-162 5 40 40 c38 36 52 65 33 65 -4 0 -37 -29 -72 -65z"/>
<path d="M7246 7242 c-3 -5 15 -29 40 -53 l45 -44 -162 -5 c-117 -4 -164 -8
-167 -17 -3 -10 34 -13 162 -13 91 0 166 -3 166 -7 0 -4 -21 -28 -46 -54 -68
-69 -36 -72 36 -3 33 31 60 64 60 73 0 16 -108 131 -122 131 -4 0 -9 -4 -12
-8z"/>
<path d="M1878 5395 l-227 -185 -54 57 c-71 74 -85 53 -15 -24 28 -32 57 -59
64 -61 13 -3 484 376 484 390 0 23 -45 -8 -252 -177z"/>
<path d="M1449 5545 c-56 -30 -59 -46 -59 -276 l0 -211 34 -34 34 -34 214 0
c234 0 243 2 273 60 20 38 22 294 3 288 -9 -3 -14 -45 -18 -142 -7 -192 -3
-189 -288 -184 l-172 3 -27 28 -28 27 -3 172 c-4 196 0 231 33 264 24 24 27
24 226 24 185 0 203 -2 229 -20 16 -11 31 -17 34 -12 6 11 -4 25 -34 45 -21
15 -53 17 -225 17 -153 -1 -206 -4 -226 -15z"/>
<path d="M3288 5544 c-53 -28 -58 -54 -58 -280 l0 -206 34 -34 34 -34 216 0
216 0 32 29 33 29 3 211 c5 309 12 301 -285 301 -156 -1 -204 -4 -225 -16z
m456 -39 l26 -24 0 -205 c0 -202 0 -205 -24 -233 l-24 -28 -207 0 -207 0 -24
28 c-24 28 -24 31 -24 233 0 275 -20 254 253 254 203 0 204 0 231 -25z"/>
<path d="M3390 5388 c0 -7 23 -36 52 -65 l52 -53 -52 -53 c-29 -29 -52 -56
-52 -60 0 -19 31 -2 75 43 l49 50 51 -50 c46 -45 75 -62 75 -43 0 4 -23 31
-52 60 l-52 53 52 53 c48 48 64 77 44 77 -4 0 -30 -22 -57 -50 -27 -27 -54
-50 -60 -50 -6 0 -33 23 -60 50 -50 51 -65 60 -65 38z"/>
<path d="M5365 5341 l-220 -179 -45 44 c-52 50 -82 56 -106 19 -15 -23 -15
-27 2 -52 37 -57 117 -133 139 -133 15 0 111 72 269 201 196 159 246 205 246
224 0 28 -24 55 -49 55 -9 0 -116 -81 -236 -179z m255 131 c0 -21 -460 -402
-485 -402 -16 0 -120 115 -120 133 0 28 35 14 78 -32 l47 -50 226 185 c124
101 232 184 240 184 8 0 14 -8 14 -18z"/>
<path d="M9050 5295 l-225 -184 -50 49 c-52 52 -65 59 -65 38 1 -19 100 -119
116 -116 19 4 474 377 474 389 0 24 -40 -5 -250 -176z"/>
<path d="M7030 5421 c-17 -32 -12 -43 37 -93 l46 -47 -46 -50 c-53 -56 -58
-83 -23 -106 30 -20 52 -11 108 43 l37 35 50 -46 c28 -26 54 -47 58 -47 20 0
53 33 53 53 0 14 -18 41 -45 67 l-44 44 44 47 c46 50 52 67 35 100 -18 33 -59
24 -110 -26 l-46 -45 -44 45 c-49 50 -91 60 -110 26z m105 -61 l51 -50 49 50
c87 88 120 56 35 -34 l-49 -52 49 -49 c28 -27 50 -55 50 -62 0 -31 -26 -21
-76 28 l-53 53 -55 -52 c-58 -55 -73 -62 -83 -36 -4 10 12 34 48 70 l53 54
-52 53 c-29 29 -52 58 -52 65 0 26 37 10 85 -38z"/>
<path d="M10900 5355 l-54 -55 -51 50 c-46 45 -75 62 -75 43 0 -4 23 -31 52
-60 l52 -53 -52 -53 c-48 -48 -64 -77 -44 -77 4 0 30 23 57 50 27 28 54 50 60
50 6 0 33 -22 60 -50 27 -27 53 -50 57 -50 20 0 4 29 -44 77 l-52 53 54 55
c36 37 51 58 44 65 -7 7 -28 -8 -64 -45z"/>
<path d="M5230 3555 c0 -3 21 -28 47 -56 l46 -50 -41 -42 c-38 -39 -53 -67
-35 -67 4 0 28 20 53 45 l46 45 44 -45 c40 -41 70 -57 70 -38 0 4 -21 29 -47
55 l-47 48 47 48 c26 26 47 51 47 55 0 18 -30 3 -65 -33 -21 -22 -44 -40 -50
-40 -6 0 -29 18 -50 40 -34 35 -65 51 -65 35z"/>
<path d="M1575 1836 c-89 -41 -135 -116 -135 -219 0 -239 318 -328 444 -124
126 203 -92 445 -309 343z m219 -36 c20 -14 49 -43 64 -64 24 -35 27 -49 27
-117 0 -70 -3 -81 -30 -120 -76 -109 -245 -123 -331 -27 -84 91 -74 241 19
312 50 38 76 46 148 43 51 -2 75 -8 103 -27z"/>
<path d="M3415 1841 c-22 -10 -55 -33 -73 -51 -54 -53 -67 -87 -67 -171 0 -67
3 -81 30 -125 84 -136 282 -154 386 -36 17 19 38 50 45 68 18 43 18 145 1 187
-51 119 -206 181 -322 128z m183 -26 c78 -33 126 -107 126 -195 0 -208 -265
-291 -387 -122 -42 58 -50 148 -17 212 25 49 62 87 105 106 41 18 128 17 173
-1z"/>
<path d="M5260 1847 c-19 -6 -55 -32 -81 -57 -157 -151 -52 -410 166 -410 137
0 239 102 239 240 0 79 -24 131 -86 184 -63 54 -152 70 -238 43z m178 -36
c138 -71 163 -242 51 -348 -43 -40 -81 -54 -145 -54 -114 0 -214 97 -214 210
0 71 52 156 118 191 50 26 140 26 190 1z"/>
<path d="M7072 1835 c-115 -59 -164 -197 -111 -315 27 -60 54 -88 114 -116 95
-45 224 -21 287 54 67 80 76 201 22 288 -65 106 -202 144 -312 89z m229 -40
c64 -45 91 -104 87 -186 -3 -51 -10 -75 -31 -107 -83 -126 -271 -126 -355 0
-24 36 -27 51 -27 119 0 70 3 81 30 120 45 64 104 91 187 87 55 -3 75 -9 109
-33z"/>
</g>
</svg>
